<svg width="101" height="102" viewBox="0 0 101 102" fill="none" xmlns="http://www.w3.org/2000/svg">
    <path d="M0 51.2791C0 23.4704 22.5434 0.927002 50.3521 0.927002C78.1608 0.927002 100.704 23.4704 100.704 51.2791V86.1383C100.704 91.261 100.704 93.8224 99.788 95.8128C98.7907 97.9791 97.0521 99.7177 94.8858 100.715C92.8954 101.631 90.334 101.631 85.2113 101.631H50.3521C22.5434 101.631 0 79.0878 0 51.2791Z" fill="#EDF8F4"/>
    <path d="M56.3612 42.5331L53.1227 32.7612H46.431L43.2118 42.5331H56.3612Z" fill="#2B96F5"/>
    <path d="M37.9551 32.7612L30.7891 42.5331H41.6398L44.8588 32.7612H37.9551Z" fill="#2B96F5"/>
    <path d="M68.7891 42.5331L61.623 32.7612H54.6965L57.935 42.5331H68.7891Z" fill="#2B96F5"/>
    <path d="M58.5177 43.9761L52.5306 65.4506L68.7797 43.9761H58.5177Z" fill="#2B96F5"/>
    <path d="M49.789 70.4133L56.916 44.0227H42.5632L49.789 70.4133Z" fill="#2B96F5"/>
    <path d="M30.8016 43.9761L46.9591 65.3332L41.0604 43.9761H30.8016Z" fill="#2B96F5"/>
</svg>
