<svg width="111" height="111" viewBox="0 0 111 111" fill="none" xmlns="http://www.w3.org/2000/svg">
    <path d="M0.210938 55.2512C0.210938 24.8756 24.8353 0.251221 55.2109 0.251221C85.5866 0.251221 110.211 24.8756 110.211 55.2512V94.2512C110.211 99.8517 110.211 102.652 109.121 104.791C108.162 106.673 106.632 108.203 104.751 109.161C102.612 110.251 99.8115 110.251 94.2109 110.251H55.2109C24.8353 110.251 0.210938 85.6269 0.210938 55.2512Z" fill="#FFEED9"/>
    <g clip-path="url(#clip0)">
        <path d="M73.6371 50.2553C73.6432 50.3653 73.6352 50.4773 73.6075 50.5886L71.1402 60.4577C71.0158 60.9549 70.5702 61.3045 70.0579 61.3072L55.2542 61.382C55.2522 61.382 55.2504 61.382 55.2485 61.382H40.4446C39.9296 61.382 39.4808 61.0312 39.3564 60.5315L36.8891 50.6249C36.8607 50.5107 36.8525 50.3955 36.8597 50.2826C35.9052 49.9819 35.2109 49.0888 35.2109 48.0362C35.2109 46.7375 36.2674 45.6811 37.5661 45.6811C38.8648 45.6811 39.9212 46.7375 39.9212 48.0362C39.9212 48.7676 39.5861 49.4219 39.0614 49.8542L42.1505 52.9666C42.9312 53.7533 44.0145 54.2043 45.1229 54.2043C46.4334 54.2043 47.6829 53.5819 48.4697 52.5392L53.5463 45.8127C53.1199 45.3865 52.8558 44.7976 52.8558 44.1484C52.8558 42.8497 53.9122 41.7932 55.2109 41.7932C56.5096 41.7932 57.5661 42.8497 57.5661 44.1484C57.5661 44.7782 57.3161 45.3498 56.9119 45.7729C56.9132 45.7747 56.9149 45.7762 56.9162 45.7781L61.9561 52.5232C62.7426 53.5759 63.9966 54.2044 65.3108 54.2044C66.4293 54.2044 67.4811 53.7688 68.272 52.9778L71.3805 49.8693C70.8447 49.4372 70.5007 48.7765 70.5007 48.0362C70.5007 46.7375 71.5571 45.6811 72.8558 45.6811C74.1545 45.6811 75.2109 46.7375 75.2109 48.0362C75.2109 49.0607 74.5522 49.932 73.6371 50.2553ZM70.8995 64.896C70.8995 64.2767 70.3973 63.7745 69.778 63.7745H40.7686C40.1493 63.7745 39.6471 64.2767 39.6471 64.896V67.5876C39.6471 68.207 40.1493 68.7091 40.7686 68.7091H69.778C70.3973 68.7091 70.8995 68.207 70.8995 67.5876V64.896Z" fill="#FF930E"/>
    </g>
    <defs>
        <clipPath id="clip0">
            <rect width="40" height="40" fill="white" transform="translate(35.2109 35.2512)"/>
        </clipPath>
    </defs>
</svg>
