<svg width="101" height="102" viewBox="0 0 101 102" fill="none" xmlns="http://www.w3.org/2000/svg">
    <path d="M0 51.2791C0 23.4704 22.5434 0.927002 50.3521 0.927002C78.1608 0.927002 100.704 23.4704 100.704 51.2791V86.1383C100.704 91.261 100.704 93.8224 99.788 95.8128C98.7907 97.9791 97.0521 99.7177 94.8858 100.715C92.8954 101.631 90.334 101.631 85.2113 101.631H50.3521C22.5434 101.631 0 79.0878 0 51.2791Z" fill="#E4E7FF"/>
    <g clip-path="url(#clip0)">
        <path d="M66.8304 34.8005H61.3375V32.9695H39.3656V34.8005H33.8727C32.7741 34.8005 32.0417 35.5329 32.0417 36.6315V41.0258C32.0417 45.2371 35.1544 48.716 39.3656 49.2653V49.4484C39.3656 54.7582 43.0276 59.1526 47.9713 60.2512L46.6896 64.0962H42.4783C41.7459 64.0962 41.0135 64.6455 40.8304 65.3779L39.3656 69.5892H61.3375L59.8727 65.3779C59.6896 64.6455 58.9572 64.0962 58.2248 64.0962H54.0135L52.7318 60.2512C57.6755 59.1526 61.3375 54.7582 61.3375 49.4484V49.2653C65.5487 48.716 68.6614 45.2371 68.6614 41.0258V36.6315C68.6614 35.5329 67.929 34.8005 66.8304 34.8005ZM39.3656 45.6033C37.3515 45.054 35.7037 43.223 35.7037 41.0258V38.4624H39.3656V45.6033ZM54.0135 51.2793L50.3515 49.2653L46.6896 51.2793L47.6051 47.6174L44.8586 43.9554H48.7037L50.3515 40.2934L51.9994 43.9554H55.8445L53.098 47.6174L54.0135 51.2793ZM64.9994 41.0258C64.9994 43.223 63.3515 45.2371 61.3375 45.6033V38.4624H64.9994V41.0258Z" fill="#7D8CFF"/>
    </g>
    <defs>
        <clipPath id="clip0">
            <rect width="36.6197" height="36.6197" fill="white" transform="translate(32.0417 32.9695)"/>
        </clipPath>
    </defs>
</svg>
