<svg width="177" height="77" viewBox="0 0 177 77" fill="none" xmlns="http://www.w3.org/2000/svg">
    <path d="M93.9845 26.7401C94.8645 26.0401 95.3045 25.1001 95.3045 23.9401C95.3045 22.8001 94.8845 21.8601 94.0645 21.1201C93.2445 20.3801 92.2445 20.0001 91.0445 20.0001H85.5245V34.0001H91.4645C92.6845 34.0001 93.7245 33.6201 94.5645 32.8601C95.4045 32.1001 95.8245 31.1201 95.8245 29.9401C95.8245 28.5201 95.2045 27.4401 93.9845 26.7401ZM91.0445 22.5801C91.9245 22.5801 92.5445 23.2401 92.5445 24.1201C92.5445 25.0001 91.9045 25.6601 91.0445 25.6601H88.2845V22.5801H91.0445ZM88.2845 31.4201V28.1201H91.4645C92.4045 28.1201 93.0845 28.8201 93.0845 29.7601C93.0845 30.7201 92.4045 31.4201 91.4645 31.4201H88.2845ZM104.214 22.9001C104.154 22.4201 104.294 22.3001 104.554 22.1801C104.974 21.9601 105.354 21.4801 105.354 20.7001C105.354 19.6401 104.494 19.0401 103.354 19.0401C102.234 19.0401 101.474 19.5401 101.034 20.5401L102.534 21.1001C102.714 20.6001 102.994 20.5201 103.314 20.5201C103.554 20.5201 103.634 20.6401 103.634 20.7601C103.634 20.9801 103.494 21.1201 103.394 21.1801C103.414 21.1601 103.214 21.3001 103.214 21.3001C102.694 21.5601 102.514 21.7601 102.514 22.9001H104.214ZM105.114 25.1801C104.334 24.2001 103.254 23.7201 101.854 23.7201C100.514 23.7201 99.3739 24.2401 98.4139 25.2601C97.4739 26.2801 96.9939 27.5201 96.9939 29.0001C96.9939 30.4801 97.4739 31.7401 98.4139 32.7601C99.3739 33.7801 100.514 34.2801 101.854 34.2801C103.254 34.2801 104.334 33.8001 105.114 32.8201V34.0001H107.694V24.0001H105.114V25.1801ZM100.354 31.0401C99.8339 30.5001 99.5739 29.8201 99.5739 29.0001C99.5739 28.1801 99.8339 27.5001 100.354 26.9801C100.874 26.4401 101.534 26.1801 102.334 26.1801C103.134 26.1801 103.794 26.4401 104.314 26.9801C104.854 27.5001 105.114 28.1801 105.114 29.0001C105.114 29.8201 104.854 30.5001 104.314 31.0401C103.794 31.5601 103.134 31.8201 102.334 31.8201C101.534 31.8201 100.874 31.5601 100.354 31.0401ZM118.553 32.7601C119.573 31.7401 120.093 30.4801 120.093 29.0001C120.093 27.5201 119.573 26.2801 118.553 25.2601C117.533 24.2401 116.273 23.7201 114.793 23.7201C113.313 23.7201 112.053 24.2401 111.033 25.2601C110.013 26.2801 109.513 27.5201 109.513 29.0001C109.513 30.4801 110.013 31.7401 111.033 32.7601C112.053 33.7801 113.313 34.2801 114.793 34.2801C116.273 34.2801 117.533 33.7801 118.553 32.7601ZM112.853 30.9801C112.353 30.4601 112.093 29.8001 112.093 29.0001C112.093 28.2001 112.353 27.5401 112.853 27.0201C113.373 26.5001 114.013 26.2401 114.793 26.2401C115.573 26.2401 116.213 26.5001 116.733 27.0201C117.253 27.5401 117.513 28.2001 117.513 29.0001C117.513 29.8001 117.253 30.4601 116.733 30.9801C116.213 31.5001 115.573 31.7601 114.793 31.7601C114.013 31.7601 113.373 31.5001 112.853 30.9801ZM132.468 23.7201C131.108 23.7201 130.108 24.1801 129.488 25.1201V20.0001H126.908V34.0001H129.488V28.6001C129.488 26.9401 130.348 26.1201 131.688 26.1201C132.888 26.1201 133.668 26.8401 133.668 28.1801V34.0001H136.248V27.8601C136.248 26.5601 135.888 25.5601 135.168 24.8201C134.468 24.0801 133.568 23.7201 132.468 23.7201ZM139.731 23.1201C140.611 23.1201 141.331 22.4201 141.331 21.5801C141.331 20.7401 140.611 20.0201 139.731 20.0201C138.871 20.0201 138.151 20.7401 138.151 21.5801C138.151 22.4201 138.871 23.1201 139.731 23.1201ZM141.031 34.0001V24.0001H138.451V34.0001H141.031ZM149.013 22.8201H151.393L149.413 20.1201H146.973L145.013 22.8201H147.393L148.213 21.6001L149.013 22.8201ZM153.113 30.0601C153.173 29.6801 153.213 29.3401 153.213 29.0001C153.213 27.5001 152.733 26.2601 151.773 25.2401C150.833 24.2201 149.613 23.7201 148.153 23.7201C146.613 23.7201 145.333 24.2201 144.353 25.2401C143.373 26.2401 142.873 27.5001 142.873 29.0001C142.873 30.5201 143.373 31.7801 144.373 32.7801C145.373 33.7801 146.693 34.2801 148.353 34.2801C150.273 34.2801 151.733 33.5601 152.713 32.1401L150.633 30.9401C150.133 31.6001 149.373 31.9401 148.393 31.9401C146.853 31.9401 145.913 31.3201 145.573 30.0601H153.113ZM145.533 28.0601C145.833 26.7801 146.773 26.0401 148.153 26.0401C149.333 26.0401 150.333 26.7001 150.633 28.0601H145.533ZM152.053 20.8201C152.013 20.3801 152.133 20.2601 152.373 20.1401C152.773 19.9401 153.113 19.5001 153.113 18.7801C153.113 17.7801 152.313 17.2201 151.253 17.2201C150.213 17.2201 149.513 17.7001 149.113 18.6201L150.493 19.1401C150.673 18.6801 150.933 18.6001 151.233 18.6001C151.453 18.6001 151.513 18.7201 151.513 18.8201C151.513 19.0401 151.393 19.1601 151.293 19.2201C151.313 19.2001 151.133 19.3201 151.133 19.3201C150.653 19.5801 150.473 19.7601 150.473 20.8201H152.053ZM166.074 23.7201C164.754 23.7201 163.754 24.2001 163.094 25.1601C162.514 24.2001 161.594 23.7201 160.374 23.7201C159.114 23.7201 158.194 24.1601 157.594 25.0601V24.0001H155.014V34.0001H157.594V28.3801C157.594 26.9201 158.334 26.1201 159.474 26.1201C160.534 26.1201 161.154 26.8201 161.154 28.0201V34.0001H163.734V28.3801C163.734 26.9201 164.414 26.1201 165.594 26.1201C166.654 26.1201 167.274 26.8201 167.274 28.0201V34.0001H169.854V27.8401C169.854 25.3401 168.374 23.7201 166.074 23.7201ZM91.8845 54.8001L95.9445 48.0001H92.8245L90.3245 52.2001L87.8245 48.0001H84.7045L88.7645 54.8201L84.4845 62.0001H87.6045L90.3245 57.4401L93.0445 62.0001H96.1845L91.8845 54.8001ZM107.332 58.0601C107.392 57.6801 107.432 57.3401 107.432 57.0001C107.432 55.5001 106.952 54.2601 105.992 53.2401C105.052 52.2201 103.832 51.7201 102.372 51.7201C100.832 51.7201 99.5516 52.2201 98.5716 53.2401C97.5916 54.2401 97.0916 55.5001 97.0916 57.0001C97.0916 58.5201 97.5916 59.7801 98.5916 60.7801C99.5916 61.7801 100.912 62.2801 102.572 62.2801C104.492 62.2801 105.952 61.5601 106.932 60.1401L104.852 58.9401C104.352 59.6001 103.592 59.9401 102.612 59.9401C101.072 59.9401 100.132 59.3201 99.7916 58.0601H107.332ZM99.7516 56.0601C100.052 54.7801 100.992 54.0401 102.372 54.0401C103.552 54.0401 104.552 54.7001 104.852 56.0601H99.7516ZM118.993 62.2801C120.933 62.2801 122.633 61.2601 123.513 59.6801L121.273 58.4001C120.873 59.2201 120.013 59.7201 118.973 59.7201C118.193 59.7201 117.553 59.4601 117.053 58.9601C116.553 58.4401 116.293 57.7801 116.293 57.0001C116.293 55.4001 117.433 54.2601 118.973 54.2601C119.993 54.2601 120.853 54.7801 121.253 55.6001L123.473 54.3001C122.653 52.7201 120.933 51.7201 118.993 51.7201C117.493 51.7201 116.233 52.2201 115.213 53.2401C114.213 54.2601 113.713 55.5001 113.713 57.0001C113.713 58.5001 114.213 59.7401 115.213 60.7601C116.233 61.7801 117.493 62.2801 118.993 62.2801ZM133.475 60.7601C134.495 59.7401 135.015 58.4801 135.015 57.0001C135.015 55.7001 134.595 54.5601 133.795 53.6201C134.895 53.2801 135.275 52.4601 135.275 50.9201V50.5801H133.195V50.9201C133.195 51.6801 133.075 52.0001 132.335 52.0001H131.475C130.935 51.8201 130.335 51.7201 129.715 51.7201C128.235 51.7201 126.975 52.2401 125.955 53.2601C124.935 54.2801 124.435 55.5201 124.435 57.0001C124.435 58.4801 124.935 59.7401 125.955 60.7601C126.975 61.7801 128.235 62.2801 129.715 62.2801C131.195 62.2801 132.455 61.7801 133.475 60.7601ZM127.775 58.9801C127.275 58.4601 127.015 57.8001 127.015 57.0001C127.015 56.2001 127.275 55.5401 127.775 55.0201C128.295 54.5001 128.935 54.2401 129.715 54.2401C130.495 54.2401 131.135 54.5001 131.655 55.0201C132.175 55.5401 132.435 56.2001 132.435 57.0001C132.435 57.8001 132.175 58.4601 131.655 58.9801C131.135 59.5001 130.495 59.7601 129.715 59.7601C128.935 59.7601 128.295 59.5001 127.775 58.9801ZM149.49 53.2401C148.73 52.2201 147.67 51.7201 146.29 51.7201C144.89 51.7201 143.71 52.2201 142.75 53.2201C141.79 54.2201 141.31 55.4201 141.31 56.8401C141.31 58.2601 141.79 59.4801 142.73 60.4801C143.69 61.4601 144.87 61.9601 146.29 61.9601C147.67 61.9601 148.73 61.4601 149.49 60.4401V61.5201C149.49 63.1001 148.49 63.9801 146.87 63.9801C145.63 63.9801 144.75 63.5201 144.25 62.5801L142.05 63.8401C142.93 65.4401 144.63 66.2801 146.79 66.2801C148.23 66.2801 149.45 65.8801 150.47 65.0601C151.49 64.2401 152.01 63.0601 152.01 61.5201V52.0001H149.49V53.2401ZM149.49 56.8401C149.49 58.4401 148.31 59.5801 146.69 59.5801C145.07 59.5801 143.89 58.4401 143.89 56.8401C143.89 56.0601 144.15 55.4001 144.67 54.9001C145.21 54.3801 145.87 54.1201 146.69 54.1201C147.51 54.1201 148.17 54.3801 148.69 54.9001C149.23 55.4001 149.49 56.0601 149.49 56.8401ZM155.63 51.1201C156.51 51.1201 157.23 50.4201 157.23 49.5801C157.23 48.7401 156.51 48.0201 155.63 48.0201C154.77 48.0201 154.05 48.7401 154.05 49.5801C154.05 50.4201 154.77 51.1201 155.63 51.1201ZM156.93 62.0001V52.0001H154.35V62.0001H156.93ZM163.091 50.5801H165.571L167.791 47.8401H164.691L163.091 50.5801ZM167.811 60.7601C168.831 59.7401 169.351 58.4801 169.351 57.0001C169.351 55.7001 168.931 54.5601 168.131 53.6201C169.231 53.2801 169.611 52.4601 169.611 50.9201V50.5801H167.531V50.9201C167.531 51.6801 167.411 52.0001 166.671 52.0001H165.811C165.271 51.8201 164.671 51.7201 164.051 51.7201C162.571 51.7201 161.311 52.2401 160.291 53.2601C159.271 54.2801 158.771 55.5201 158.771 57.0001C158.771 58.4801 159.271 59.7401 160.291 60.7601C161.311 61.7801 162.571 62.2801 164.051 62.2801C165.531 62.2801 166.791 61.7801 167.811 60.7601ZM162.111 58.9801C161.611 58.4601 161.351 57.8001 161.351 57.0001C161.351 56.2001 161.611 55.5401 162.111 55.0201C162.631 54.5001 163.271 54.2401 164.051 54.2401C164.831 54.2401 165.471 54.5001 165.991 55.0201C166.511 55.5401 166.771 56.2001 166.771 57.0001C166.771 57.8001 166.511 58.4601 165.991 58.9801C165.471 59.5001 164.831 59.7601 164.051 59.7601C163.271 59.7601 162.631 59.5001 162.111 58.9801ZM172.446 51.1201C173.326 51.1201 174.046 50.4201 174.046 49.5801C174.046 48.7401 173.326 48.0201 172.446 48.0201C171.586 48.0201 170.866 48.7401 170.866 49.5801C170.866 50.4201 171.586 51.1201 172.446 51.1201ZM173.746 62.0001V52.0001H171.166V62.0001H173.746Z" fill="#082854" fill-opacity="0.9"/>
    <path d="M66.9864 13.1673C55.9794 10.2926 44.9077 5.81645 34.9682 0.22284C34.4402 -0.0742801 33.7851 -0.0742801 33.2573 0.22284C23.031 5.97715 12.5576 10.2112 1.23812 13.1673C0.506874 13.3581 0 13.9917 0 14.7144V31.1039C0 47.9813 8.16858 59.1531 15.0214 65.5529C22.3989 72.4432 30.9926 76.2537 34.1127 76.2537C37.2326 76.2537 45.8263 72.4432 53.2038 65.5529C60.0564 59.1532 68.2245 47.9815 68.2245 31.1039V14.7143C68.2245 13.9917 67.7177 13.3581 66.9864 13.1673ZM64.8589 31.1037C64.8589 46.8672 57.24 57.2917 50.8482 63.2612C43.5933 70.0369 35.8366 73.0454 34.1127 73.0454C32.3888 73.0454 24.6317 70.0369 17.3767 63.2612C10.985 57.2916 3.36577 46.8672 3.36577 31.1037V15.932C14.1904 13.0024 24.2714 8.9141 34.1131 3.46272C43.709 8.76949 54.2929 13.0611 64.8589 15.9314V31.1037Z" fill="#082854"/>
    <path d="M19.1964 15.7524C18.8558 14.9281 17.8787 14.5231 17.0137 14.848C14.0075 15.977 10.9219 17.0163 7.84267 17.937C7.14095 18.147 6.66345 18.7665 6.66345 19.4674V25.6617C6.66345 26.5475 7.41704 27.2657 8.34626 27.2657C9.27548 27.2657 10.0291 26.5475 10.0291 25.6617V20.6397C12.7914 19.7878 15.5508 18.8455 18.2475 17.8326C19.1123 17.5081 19.5372 16.5768 19.1964 15.7524Z" fill="#082854"/>
    <path d="M22.3931 16.0567C22.6189 16.0567 22.8481 16.0134 23.0679 15.9219L23.0989 15.9091C23.9503 15.5535 24.3337 14.6088 23.9606 13.7976C23.5872 12.9861 22.5905 12.6189 21.74 12.9743L21.7128 12.9855C20.861 13.3401 20.4763 14.284 20.8483 15.0957C21.1244 15.6982 21.7439 16.0567 22.3931 16.0567Z" fill="#082854"/>
    <path d="M35.3843 32.4741C33.6412 31.8172 34.3812 32.096 32.1211 31.2446L22.0266 30.2673C21.643 30.5282 21.2805 30.8274 20.9453 31.1626L15.0609 37.0477C14.3766 37.7313 14 38.6415 14 39.6087V44.429C14 46.4259 15.625 48.0509 17.6219 48.0509H34L35.1719 45.4551L35.3843 32.4741Z" fill="#94E671"/>
    <path d="M54 41.4008V44.8391C54 46.6102 52.5594 48.0508 50.7883 48.0508H34V31.9524L45.8297 36.411L45.8438 36.4157L51.782 38.3469C53.1086 38.7782 54 40.0055 54 41.4008Z" fill="#52CC7B"/>
    <path d="M35.804 32.5313L34 36.4156H26.429C23.9977 36.4156 22.0266 34.4445 22.0266 32.0133V30.2672C22.5157 29.9352 23.0391 29.6648 23.5891 29.4617C24.4032 29.1578 25.2735 29 26.1672 29H34L35.804 32.5313Z" fill="#404A80"/>
    <path d="M38.3956 40.9539H36.3102C35.663 40.9539 35.1383 40.4292 35.1383 39.782C35.1383 39.1349 35.663 38.6102 36.3102 38.6102H38.3956C39.0428 38.6102 39.5675 39.1349 39.5675 39.782C39.5675 40.4292 39.0428 40.9539 38.3956 40.9539Z" fill="#3D997A"/>
    <path d="M22.3007 49.7533C23.8882 49.7533 25.1751 48.4664 25.1751 46.879C25.1751 45.2915 23.8882 44.0046 22.3007 44.0046C20.7132 44.0046 19.4263 45.2915 19.4263 46.879C19.4263 48.4664 20.7132 49.7533 22.3007 49.7533Z" fill="#E8F1FD"/>
    <path d="M45.6994 49.7533C47.2869 49.7533 48.5738 48.4664 48.5738 46.879C48.5738 45.2915 47.2869 44.0046 45.6994 44.0046C44.1119 44.0046 42.825 45.2915 42.825 46.879C42.825 48.4664 44.1119 49.7533 45.6994 49.7533Z" fill="#CFDBFD"/>
    <path d="M22.3007 51.5663C19.716 51.5663 17.6132 49.4635 17.6132 46.8788C17.6132 44.2942 19.716 42.1913 22.3007 42.1913C24.8854 42.1913 26.9882 44.2942 26.9882 46.8788C26.9882 49.4635 24.8854 51.5663 22.3007 51.5663ZM22.3007 44.5351C21.0084 44.5351 19.957 45.5865 19.957 46.8788C19.957 48.1712 21.0084 49.2226 22.3007 49.2226C23.5931 49.2226 24.6445 48.1712 24.6445 46.8788C24.6445 45.5865 23.5931 44.5351 22.3007 44.5351Z" fill="#404A80"/>
    <path d="M45.6993 51.5663C43.1147 51.5663 41.0118 49.4635 41.0118 46.8788C41.0118 44.2942 43.1147 42.1913 45.6993 42.1913C48.284 42.1913 50.3868 44.2942 50.3868 46.8788C50.3868 49.4635 48.284 51.5663 45.6993 51.5663ZM45.6993 44.5351C44.407 44.5351 43.3556 45.5865 43.3556 46.8788C43.3556 48.1712 44.407 49.2226 45.6993 49.2226C46.9917 49.2226 48.0431 48.1712 48.0431 46.8788C48.0431 45.5865 46.9917 44.5351 45.6993 44.5351Z" fill="#283366"/>
    <path d="M45.8438 36.4156H34V29H36.3219C37.6742 29 38.9453 29.5266 39.9016 30.4828L45.8297 36.4109L45.8438 36.4156Z" fill="#283366"/>
</svg>
