<svg width="177" height="77" viewBox="0 0 177 77" fill="none" xmlns="http://www.w3.org/2000/svg">
    <path d="M93.9845 26.74C94.8645 26.04 95.3045 25.1 95.3045 23.94C95.3045 22.8 94.8845 21.86 94.0645 21.12C93.2445 20.38 92.2445 20 91.0445 20H85.5245V34H91.4645C92.6845 34 93.7245 33.62 94.5645 32.86C95.4045 32.1 95.8245 31.12 95.8245 29.94C95.8245 28.52 95.2045 27.44 93.9845 26.74ZM91.0445 22.58C91.9245 22.58 92.5445 23.24 92.5445 24.12C92.5445 25 91.9045 25.66 91.0445 25.66H88.2845V22.58H91.0445ZM88.2845 31.42V28.12H91.4645C92.4045 28.12 93.0845 28.82 93.0845 29.76C93.0845 30.72 92.4045 31.42 91.4645 31.42H88.2845ZM104.214 22.9C104.154 22.42 104.294 22.3 104.554 22.18C104.974 21.96 105.354 21.48 105.354 20.7C105.354 19.64 104.494 19.04 103.354 19.04C102.234 19.04 101.474 19.54 101.034 20.54L102.534 21.1C102.714 20.6 102.994 20.52 103.314 20.52C103.554 20.52 103.634 20.64 103.634 20.76C103.634 20.98 103.494 21.12 103.394 21.18C103.414 21.16 103.214 21.3 103.214 21.3C102.694 21.56 102.514 21.76 102.514 22.9H104.214ZM105.114 25.18C104.334 24.2 103.254 23.72 101.854 23.72C100.514 23.72 99.3739 24.24 98.4139 25.26C97.4739 26.28 96.9939 27.52 96.9939 29C96.9939 30.48 97.4739 31.74 98.4139 32.76C99.3739 33.78 100.514 34.28 101.854 34.28C103.254 34.28 104.334 33.8 105.114 32.82V34H107.694V24H105.114V25.18ZM100.354 31.04C99.8339 30.5 99.5739 29.82 99.5739 29C99.5739 28.18 99.8339 27.5 100.354 26.98C100.874 26.44 101.534 26.18 102.334 26.18C103.134 26.18 103.794 26.44 104.314 26.98C104.854 27.5 105.114 28.18 105.114 29C105.114 29.82 104.854 30.5 104.314 31.04C103.794 31.56 103.134 31.82 102.334 31.82C101.534 31.82 100.874 31.56 100.354 31.04ZM118.553 32.76C119.573 31.74 120.093 30.48 120.093 29C120.093 27.52 119.573 26.28 118.553 25.26C117.533 24.24 116.273 23.72 114.793 23.72C113.313 23.72 112.053 24.24 111.033 25.26C110.013 26.28 109.513 27.52 109.513 29C109.513 30.48 110.013 31.74 111.033 32.76C112.053 33.78 113.313 34.28 114.793 34.28C116.273 34.28 117.533 33.78 118.553 32.76ZM112.853 30.98C112.353 30.46 112.093 29.8 112.093 29C112.093 28.2 112.353 27.54 112.853 27.02C113.373 26.5 114.013 26.24 114.793 26.24C115.573 26.24 116.213 26.5 116.733 27.02C117.253 27.54 117.513 28.2 117.513 29C117.513 29.8 117.253 30.46 116.733 30.98C116.213 31.5 115.573 31.76 114.793 31.76C114.013 31.76 113.373 31.5 112.853 30.98ZM132.468 23.72C131.108 23.72 130.108 24.18 129.488 25.12V20H126.908V34H129.488V28.6C129.488 26.94 130.348 26.12 131.688 26.12C132.888 26.12 133.668 26.84 133.668 28.18V34H136.248V27.86C136.248 26.56 135.888 25.56 135.168 24.82C134.468 24.08 133.568 23.72 132.468 23.72ZM139.731 23.12C140.611 23.12 141.331 22.42 141.331 21.58C141.331 20.74 140.611 20.02 139.731 20.02C138.871 20.02 138.151 20.74 138.151 21.58C138.151 22.42 138.871 23.12 139.731 23.12ZM141.031 34V24H138.451V34H141.031ZM149.013 22.82H151.393L149.413 20.12H146.973L145.013 22.82H147.393L148.213 21.6L149.013 22.82ZM153.113 30.06C153.173 29.68 153.213 29.34 153.213 29C153.213 27.5 152.733 26.26 151.773 25.24C150.833 24.22 149.613 23.72 148.153 23.72C146.613 23.72 145.333 24.22 144.353 25.24C143.373 26.24 142.873 27.5 142.873 29C142.873 30.52 143.373 31.78 144.373 32.78C145.373 33.78 146.693 34.28 148.353 34.28C150.273 34.28 151.733 33.56 152.713 32.14L150.633 30.94C150.133 31.6 149.373 31.94 148.393 31.94C146.853 31.94 145.913 31.32 145.573 30.06H153.113ZM145.533 28.06C145.833 26.78 146.773 26.04 148.153 26.04C149.333 26.04 150.333 26.7 150.633 28.06H145.533ZM152.053 20.82C152.013 20.38 152.133 20.26 152.373 20.14C152.773 19.94 153.113 19.5 153.113 18.78C153.113 17.78 152.313 17.22 151.253 17.22C150.213 17.22 149.513 17.7 149.113 18.62L150.493 19.14C150.673 18.68 150.933 18.6 151.233 18.6C151.453 18.6 151.513 18.72 151.513 18.82C151.513 19.04 151.393 19.16 151.293 19.22C151.313 19.2 151.133 19.32 151.133 19.32C150.653 19.58 150.473 19.76 150.473 20.82H152.053ZM166.074 23.72C164.754 23.72 163.754 24.2 163.094 25.16C162.514 24.2 161.594 23.72 160.374 23.72C159.114 23.72 158.194 24.16 157.594 25.06V24H155.014V34H157.594V28.38C157.594 26.92 158.334 26.12 159.474 26.12C160.534 26.12 161.154 26.82 161.154 28.02V34H163.734V28.38C163.734 26.92 164.414 26.12 165.594 26.12C166.654 26.12 167.274 26.82 167.274 28.02V34H169.854V27.84C169.854 25.34 168.374 23.72 166.074 23.72ZM90.3045 62.28C91.8045 62.28 93.0245 61.9 93.9645 61.14C94.9045 60.38 95.3845 59.36 95.3845 58.06C95.3845 57.26 95.1645 56.56 94.8645 56.08C94.6045 55.6 93.9645 55.1 93.5445 54.84C93.3445 54.7 93.0445 54.56 92.6645 54.42C92.2845 54.26 91.9845 54.14 91.7645 54.08L90.8045 53.76C89.7645 53.44 89.0645 53.14 88.6845 52.88C88.3245 52.6 88.1445 52.24 88.1445 51.8C88.1445 50.98 88.8445 50.4 89.9845 50.4C91.2045 50.4 92.1045 51 92.6645 52.2L94.9845 50.86C94.0245 48.88 92.2445 47.72 89.9845 47.72C88.7245 47.72 87.6245 48.1 86.7245 48.86C85.8245 49.6 85.3845 50.62 85.3845 51.88C85.3845 53.16 85.8445 54.12 86.7045 54.76C87.5845 55.38 88.3445 55.68 89.6045 56.06C90.7445 56.38 91.5245 56.68 91.9645 56.96C92.4045 57.22 92.6245 57.6 92.6245 58.1C92.6245 58.96 91.9245 59.58 90.3845 59.58C88.7845 59.58 87.7045 58.86 87.1645 57.44L84.8045 58.82C85.5845 60.96 87.5245 62.28 90.3045 62.28ZM101.905 48L100.305 50.74H102.785L105.005 48H101.905ZM103.665 57.4C103.665 59.06 102.805 59.88 101.465 59.88C100.265 59.88 99.4847 59.16 99.4847 57.82V52H96.9047V58.14C96.9047 59.44 97.2647 60.44 97.9647 61.18C98.6847 61.92 99.5847 62.28 100.685 62.28C102.045 62.28 103.045 61.82 103.665 60.88V62H106.245V53.74C107.725 53.52 108.225 52.68 108.225 50.92V50.58H106.145V50.92C106.145 51.64 106.045 51.98 105.385 52H103.665V57.4ZM113.368 62.28C115.308 62.28 117.008 61.26 117.888 59.68L115.648 58.4C115.248 59.22 114.388 59.72 113.348 59.72C112.568 59.72 111.928 59.46 111.428 58.96C110.928 58.44 110.668 57.78 110.668 57C110.668 55.4 111.808 54.26 113.348 54.26C114.368 54.26 115.228 54.78 115.628 55.6L117.848 54.3C117.028 52.72 115.308 51.72 113.368 51.72C111.868 51.72 110.608 52.22 109.588 53.24C108.588 54.26 108.088 55.5 108.088 57C108.088 58.5 108.588 59.74 109.588 60.76C110.608 61.78 111.868 62.28 113.368 62.28ZM129.41 56.94L133.43 52H130.35L126.91 56.4V48H124.33V62H126.91V57.46L130.55 62H133.55L129.41 56.94ZM140.398 51.72C139.038 51.72 138.038 52.18 137.418 53.12V48H134.838V62H137.418V56.6C137.418 54.94 138.278 54.12 139.618 54.12C140.818 54.12 141.598 54.84 141.598 56.18V62H144.178V55.86C144.178 54.56 143.818 53.56 143.098 52.82C142.398 52.08 141.498 51.72 140.398 51.72ZM152.461 50.9C152.401 50.42 152.541 50.3 152.801 50.18C153.221 49.96 153.601 49.48 153.601 48.7C153.601 47.64 152.741 47.04 151.601 47.04C150.481 47.04 149.721 47.54 149.281 48.54L150.781 49.1C150.961 48.6 151.241 48.52 151.561 48.52C151.801 48.52 151.881 48.64 151.881 48.76C151.881 48.98 151.741 49.12 151.641 49.18C151.661 49.16 151.461 49.3 151.461 49.3C150.941 49.56 150.761 49.76 150.761 50.9H152.461ZM154.901 60.76C155.921 59.74 156.441 58.48 156.441 57C156.441 55.52 155.921 54.28 154.901 53.26C153.881 52.24 152.621 51.72 151.141 51.72C149.661 51.72 148.401 52.24 147.381 53.26C146.361 54.28 145.861 55.52 145.861 57C145.861 58.48 146.361 59.74 147.381 60.76C148.401 61.78 149.661 62.28 151.141 62.28C152.621 62.28 153.881 61.78 154.901 60.76ZM149.201 58.98C148.701 58.46 148.441 57.8 148.441 57C148.441 56.2 148.701 55.54 149.201 55.02C149.721 54.5 150.361 54.24 151.141 54.24C151.921 54.24 152.561 54.5 153.081 55.02C153.601 55.54 153.861 56.2 153.861 57C153.861 57.8 153.601 58.46 153.081 58.98C152.561 59.5 151.921 59.76 151.141 59.76C150.361 59.76 149.721 59.5 149.201 58.98ZM167.976 58.06C168.036 57.68 168.076 57.34 168.076 57C168.076 55.5 167.596 54.26 166.636 53.24C165.696 52.22 164.476 51.72 163.016 51.72C161.476 51.72 160.196 52.22 159.216 53.24C158.236 54.24 157.736 55.5 157.736 57C157.736 58.52 158.236 59.78 159.236 60.78C160.236 61.78 161.556 62.28 163.216 62.28C165.136 62.28 166.596 61.56 167.576 60.14L165.496 58.94C164.996 59.6 164.236 59.94 163.256 59.94C161.716 59.94 160.776 59.32 160.436 58.06H167.976ZM160.396 56.06C160.696 54.78 161.636 54.04 163.016 54.04C164.196 54.04 165.196 54.7 165.496 56.06H160.396Z" fill="#082854" fill-opacity="0.9"/>
    <path d="M66.9864 13.1674C55.9794 10.2927 44.9077 5.81651 34.9682 0.222901C34.4402 -0.0742191 33.7851 -0.0742191 33.2573 0.222901C23.031 5.97721 12.5576 10.2112 1.23812 13.1674C0.506874 13.3582 0 13.9917 0 14.7145V31.1039C0 47.9814 8.16858 59.1531 15.0214 65.5529C22.3989 72.4433 30.9926 76.2537 34.1127 76.2537C37.2326 76.2537 45.8263 72.4433 53.2038 65.5529C60.0564 59.1533 68.2245 47.9816 68.2245 31.1039V14.7143C68.2245 13.9917 67.7177 13.3582 66.9864 13.1674ZM64.8589 31.1038C64.8589 46.8672 57.24 57.2918 50.8482 63.2613C43.5933 70.037 35.8366 73.0454 34.1127 73.0454C32.3888 73.0454 24.6317 70.037 17.3767 63.2613C10.985 57.2916 3.36577 46.8672 3.36577 31.1038V15.932C14.1904 13.0025 24.2714 8.91416 34.1131 3.46278C43.709 8.76955 54.2929 13.0612 64.8589 15.9314V31.1038Z" fill="#082854"/>
    <path d="M19.1964 15.7525C18.8558 14.9282 17.8787 14.5232 17.0137 14.848C14.0075 15.9771 10.9219 17.0163 7.84265 17.937C7.14094 18.147 6.66344 18.7666 6.66344 19.4675V25.6617C6.66344 26.5476 7.41703 27.2657 8.34625 27.2657C9.27547 27.2657 10.0291 26.5476 10.0291 25.6617V20.6397C12.7914 19.7878 15.5508 18.8455 18.2475 17.8326C19.1123 17.5081 19.5372 16.5768 19.1964 15.7525Z" fill="#082854"/>
    <path d="M22.3931 16.0568C22.6189 16.0568 22.8481 16.0134 23.068 15.922L23.0989 15.9092C23.9503 15.5535 24.3337 14.6089 23.9606 13.7976C23.5872 12.9861 22.5905 12.619 21.74 12.9744L21.7128 12.9855C20.8609 13.3401 20.4763 14.284 20.8483 15.0957C21.1244 15.6983 21.7439 16.0568 22.3931 16.0568Z" fill="#082854"/>
    <path d="M48.4361 40.0632C48.4298 40.0694 48.4563 40.0632 48.3566 40.0632C47.306 40.0632 46.5797 41.0375 46.9459 41.9454C46.7696 42.1312 47.5305 41.3706 34.6615 54.1723C34.295 54.5363 33.7056 54.5369 33.3384 54.1723C20.4733 41.3739 21.2321 42.1331 21.054 41.9454C21.4347 41.0015 20.6389 40.0127 19.5652 40.0651C19.5645 40.0644 19.5645 40.0638 19.5639 40.0633C18.4989 38.3992 17.9643 36.5939 18.0019 34.7411C18.1472 27.469 27.0213 22.1069 34 28.2109C40.9748 22.1103 49.8527 27.4651 49.9982 34.7411C50.0357 36.5939 49.501 38.3992 48.4361 40.0632Z" fill="#FF405C"/>
    <path d="M48.4361 40.0633C48.4298 40.0695 48.4563 40.0633 48.3566 40.0633C47.306 40.0633 46.5797 41.0376 46.9459 41.9455C46.7696 42.1313 47.5305 41.3707 34.6615 54.1723C34.4783 54.3543 34.2394 54.4456 33.9999 54.4456V28.211C38.3443 24.4112 43.7647 24.8965 47.2173 28.3479C50.2874 31.4181 50.9951 36.0648 48.4361 40.0633Z" fill="#C30047"/>
    <path d="M48.4361 40.5027C48.0215 41.1511 47.5262 41.7783 46.9522 42.3786H40.0031C39.6579 42.3786 39.3409 42.1892 39.177 41.8853L36.5551 37.0153L32.8469 44.8436C32.533 45.5064 31.6049 45.5712 31.208 44.9456L28.521 40.7234L27.8006 41.9233C27.6312 42.206 27.326 42.3786 26.9965 42.3786H21.0478C20.4738 41.7783 19.9785 41.1511 19.5639 40.5026H26.4656L27.6931 38.4566C28.048 37.8636 28.9111 37.8424 29.2883 38.4359L31.8783 42.5055L35.6534 34.5358C35.9839 33.8409 36.9625 33.8173 37.3273 34.4927L40.5634 40.5026H48.4361V40.5027Z" fill="#E1F3FF"/>
    <path d="M37.3273 34.4725C36.9632 33.826 35.9844 33.8462 35.6533 34.5139L34 37.8614V42.065L36.5551 36.8917L39.177 41.5624C39.3409 41.8538 39.6579 42.0356 40.0031 42.0356H46.9522C47.5263 41.4598 48.0215 40.8583 48.4361 40.2364H40.5634L37.3273 34.4725Z" fill="#B1D5F1"/>
</svg>
