<svg width="177" height="77" viewBox="0 0 177 77" fill="none" xmlns="http://www.w3.org/2000/svg">
    <path d="M66.9864 13.1673C55.9794 10.2926 44.9077 5.81645 34.9682 0.22284C34.4402 -0.0742801 33.7851 -0.0742801 33.2573 0.22284C23.031 5.97715 12.5576 10.2112 1.23812 13.1673C0.506874 13.3581 0 13.9917 0 14.7144V31.1039C0 47.9813 8.16858 59.1531 15.0214 65.5529C22.3989 72.4432 30.9926 76.2537 34.1127 76.2537C37.2326 76.2537 45.8263 72.4432 53.2038 65.5529C60.0564 59.1532 68.2245 47.9815 68.2245 31.1039V14.7143C68.2245 13.9917 67.7177 13.3581 66.9864 13.1673ZM64.8589 31.1037C64.8589 46.8672 57.24 57.2917 50.8482 63.2612C43.5933 70.0369 35.8366 73.0454 34.1127 73.0454C32.3888 73.0454 24.6317 70.0369 17.3767 63.2612C10.985 57.2916 3.36577 46.8672 3.36577 31.1037V15.932C14.1904 13.0024 24.2714 8.9141 34.1131 3.46272C43.709 8.76949 54.2929 13.0611 64.8589 15.9314V31.1037Z" fill="#082854"/>
    <path d="M19.1964 15.7524C18.8558 14.9281 17.8787 14.5231 17.0137 14.848C14.0075 15.977 10.9219 17.0163 7.84267 17.937C7.14095 18.147 6.66345 18.7665 6.66345 19.4674V25.6617C6.66345 26.5475 7.41704 27.2657 8.34626 27.2657C9.27548 27.2657 10.0291 26.5475 10.0291 25.6617V20.6397C12.7914 19.7878 15.5508 18.8455 18.2475 17.8326C19.1123 17.5081 19.5372 16.5768 19.1964 15.7524Z" fill="#082854"/>
    <path d="M22.3931 16.0567C22.6189 16.0567 22.8481 16.0134 23.068 15.9219L23.0989 15.9091C23.9503 15.5535 24.3338 14.6088 23.9607 13.7976C23.5872 12.9861 22.5905 12.6189 21.74 12.9743L21.7128 12.9855C20.861 13.3401 20.4763 14.284 20.8483 15.0957C21.1244 15.6982 21.7439 16.0567 22.3931 16.0567Z" fill="#082854"/>
    <path d="M48.1111 36.5658C48.1104 36.5651 48.1097 36.5644 48.1091 36.5638L36.3242 24.7794C35.8219 24.2768 35.1541 24 34.4437 24C33.7333 24 33.0654 24.2766 32.5629 24.7792L20.7842 36.5576C20.7803 36.5616 20.7761 36.5658 20.7723 36.5697C19.7408 37.6072 19.7426 39.2905 20.7776 40.3253C21.2502 40.7984 21.8744 41.0723 22.542 41.101C22.5691 41.1036 22.5967 41.1049 22.6242 41.1049H23.0937V49.7775C23.0937 51.4937 24.4903 52.89 26.2066 52.89H30.8172C31.2847 52.89 31.6636 52.5111 31.6636 52.0436V45.2443C31.6636 44.4612 32.3008 43.8242 33.084 43.8242H35.8034C36.5865 43.8242 37.2235 44.4612 37.2235 45.2443V52.0436C37.2235 52.5111 37.6026 52.89 38.0699 52.89H42.6805C44.3971 52.89 45.7934 51.4937 45.7934 49.7775V41.1049H46.229C46.9391 41.1049 47.607 40.8283 48.1097 40.3258C49.1457 39.2892 49.1463 37.603 48.1111 36.5658Z" fill="#1DBEF1"/>
    <path d="M48.1111 36.5658C48.1104 36.5651 48.1098 36.5644 48.1091 36.5638L36.3243 24.7794C35.8219 24.2768 35.1541 24 34.4437 24H34.4435V43.8242H35.8034C36.5866 43.8242 37.2236 44.4612 37.2236 45.2443V52.0436C37.2236 52.5111 37.6027 52.89 38.0699 52.89H42.6805C44.3971 52.89 45.7934 51.4937 45.7934 49.7775V41.1049H46.229C46.9391 41.1049 47.607 40.8283 48.1098 40.3258C49.1457 39.2892 49.1464 37.603 48.1111 36.5658Z" fill="#00A1D5"/>
    <path d="M93.9845 26.7401C94.8645 26.0401 95.3045 25.1001 95.3045 23.9401C95.3045 22.8001 94.8845 21.8601 94.0645 21.1201C93.2445 20.3801 92.2445 20.0001 91.0445 20.0001H85.5245V34.0001H91.4645C92.6845 34.0001 93.7245 33.6201 94.5645 32.8601C95.4045 32.1001 95.8245 31.1201 95.8245 29.9401C95.8245 28.5201 95.2045 27.4401 93.9845 26.7401ZM91.0445 22.5801C91.9245 22.5801 92.5445 23.2401 92.5445 24.1201C92.5445 25.0001 91.9045 25.6601 91.0445 25.6601H88.2845V22.5801H91.0445ZM88.2845 31.4201V28.1201H91.4645C92.4045 28.1201 93.0845 28.8201 93.0845 29.7601C93.0845 30.7201 92.4045 31.4201 91.4645 31.4201H88.2845ZM104.214 22.9001C104.154 22.4201 104.294 22.3001 104.554 22.1801C104.974 21.9601 105.354 21.4801 105.354 20.7001C105.354 19.6401 104.494 19.0401 103.354 19.0401C102.234 19.0401 101.474 19.5401 101.034 20.5401L102.534 21.1001C102.714 20.6001 102.994 20.5201 103.314 20.5201C103.554 20.5201 103.634 20.6401 103.634 20.7601C103.634 20.9801 103.494 21.1201 103.394 21.1801C103.414 21.1601 103.214 21.3001 103.214 21.3001C102.694 21.5601 102.514 21.7601 102.514 22.9001H104.214ZM105.114 25.1801C104.334 24.2001 103.254 23.7201 101.854 23.7201C100.514 23.7201 99.3739 24.2401 98.4139 25.2601C97.4739 26.2801 96.9939 27.5201 96.9939 29.0001C96.9939 30.4801 97.4739 31.7401 98.4139 32.7601C99.3739 33.7801 100.514 34.2801 101.854 34.2801C103.254 34.2801 104.334 33.8001 105.114 32.8201V34.0001H107.694V24.0001H105.114V25.1801ZM100.354 31.0401C99.8339 30.5001 99.5739 29.8201 99.5739 29.0001C99.5739 28.1801 99.8339 27.5001 100.354 26.9801C100.874 26.4401 101.534 26.1801 102.334 26.1801C103.134 26.1801 103.794 26.4401 104.314 26.9801C104.854 27.5001 105.114 28.1801 105.114 29.0001C105.114 29.8201 104.854 30.5001 104.314 31.0401C103.794 31.5601 103.134 31.8201 102.334 31.8201C101.534 31.8201 100.874 31.5601 100.354 31.0401ZM118.553 32.7601C119.573 31.7401 120.093 30.4801 120.093 29.0001C120.093 27.5201 119.573 26.2801 118.553 25.2601C117.533 24.2401 116.273 23.7201 114.793 23.7201C113.313 23.7201 112.053 24.2401 111.033 25.2601C110.013 26.2801 109.513 27.5201 109.513 29.0001C109.513 30.4801 110.013 31.7401 111.033 32.7601C112.053 33.7801 113.313 34.2801 114.793 34.2801C116.273 34.2801 117.533 33.7801 118.553 32.7601ZM112.853 30.9801C112.353 30.4601 112.093 29.8001 112.093 29.0001C112.093 28.2001 112.353 27.5401 112.853 27.0201C113.373 26.5001 114.013 26.2401 114.793 26.2401C115.573 26.2401 116.213 26.5001 116.733 27.0201C117.253 27.5401 117.513 28.2001 117.513 29.0001C117.513 29.8001 117.253 30.4601 116.733 30.9801C116.213 31.5001 115.573 31.7601 114.793 31.7601C114.013 31.7601 113.373 31.5001 112.853 30.9801ZM132.468 23.7201C131.108 23.7201 130.108 24.1801 129.488 25.1201V20.0001H126.908V34.0001H129.488V28.6001C129.488 26.9401 130.348 26.1201 131.688 26.1201C132.888 26.1201 133.668 26.8401 133.668 28.1801V34.0001H136.248V27.8601C136.248 26.5601 135.888 25.5601 135.168 24.8201C134.468 24.0801 133.568 23.7201 132.468 23.7201ZM139.731 23.1201C140.611 23.1201 141.331 22.4201 141.331 21.5801C141.331 20.7401 140.611 20.0201 139.731 20.0201C138.871 20.0201 138.151 20.7401 138.151 21.5801C138.151 22.4201 138.871 23.1201 139.731 23.1201ZM141.031 34.0001V24.0001H138.451V34.0001H141.031ZM149.013 22.8201H151.393L149.413 20.1201H146.973L145.013 22.8201H147.393L148.213 21.6001L149.013 22.8201ZM153.113 30.0601C153.173 29.6801 153.213 29.3401 153.213 29.0001C153.213 27.5001 152.733 26.2601 151.773 25.2401C150.833 24.2201 149.613 23.7201 148.153 23.7201C146.613 23.7201 145.333 24.2201 144.353 25.2401C143.373 26.2401 142.873 27.5001 142.873 29.0001C142.873 30.5201 143.373 31.7801 144.373 32.7801C145.373 33.7801 146.693 34.2801 148.353 34.2801C150.273 34.2801 151.733 33.5601 152.713 32.1401L150.633 30.9401C150.133 31.6001 149.373 31.9401 148.393 31.9401C146.853 31.9401 145.913 31.3201 145.573 30.0601H153.113ZM145.533 28.0601C145.833 26.7801 146.773 26.0401 148.153 26.0401C149.333 26.0401 150.333 26.7001 150.633 28.0601H145.533ZM152.053 20.8201C152.013 20.3801 152.133 20.2601 152.373 20.1401C152.773 19.9401 153.113 19.5001 153.113 18.7801C153.113 17.7801 152.313 17.2201 151.253 17.2201C150.213 17.2201 149.513 17.7001 149.113 18.6201L150.493 19.1401C150.673 18.6801 150.933 18.6001 151.233 18.6001C151.453 18.6001 151.513 18.7201 151.513 18.8201C151.513 19.0401 151.393 19.1601 151.293 19.2201C151.313 19.2001 151.133 19.3201 151.133 19.3201C150.653 19.5801 150.473 19.7601 150.473 20.8201H152.053ZM166.074 23.7201C164.754 23.7201 163.754 24.2001 163.094 25.1601C162.514 24.2001 161.594 23.7201 160.374 23.7201C159.114 23.7201 158.194 24.1601 157.594 25.0601V24.0001H155.014V34.0001H157.594V28.3801C157.594 26.9201 158.334 26.1201 159.474 26.1201C160.534 26.1201 161.154 26.8201 161.154 28.0201V34.0001H163.734V28.3801C163.734 26.9201 164.414 26.1201 165.594 26.1201C166.654 26.1201 167.274 26.8201 167.274 28.0201V34.0001H169.854V27.8401C169.854 25.3401 168.374 23.7201 166.074 23.7201ZM93.6245 56.5401L87.6245 48.0001H85.5245V62.0001H88.2845V53.4401L94.2845 62.0001H96.3845V48.0001H93.6245V56.5401ZM104.422 51.7201C103.062 51.7201 102.062 52.1801 101.442 53.1201V48.0001H98.8616V62.0001H101.442V56.6001C101.442 54.9401 102.302 54.1201 103.642 54.1201C104.842 54.1201 105.622 54.8401 105.622 56.1801V62.0001H108.202V55.8601C108.202 54.5601 107.842 53.5601 107.122 52.8201C106.422 52.0801 105.522 51.7201 104.422 51.7201ZM116.145 48.0001H113.045L115.265 50.7401H117.745L116.145 48.0001ZM118.005 53.1801C117.225 52.2001 116.145 51.7201 114.745 51.7201C113.405 51.7201 112.265 52.2401 111.305 53.2601C110.365 54.2801 109.885 55.5201 109.885 57.0001C109.885 58.4801 110.365 59.7401 111.305 60.7601C112.265 61.7801 113.405 62.2801 114.745 62.2801C116.145 62.2801 117.225 61.8001 118.005 60.8201V62.0001H120.585V52.0001H118.005V53.1801ZM113.245 59.0401C112.725 58.5001 112.465 57.8201 112.465 57.0001C112.465 56.1801 112.725 55.5001 113.245 54.9801C113.765 54.4401 114.425 54.1801 115.225 54.1801C116.025 54.1801 116.685 54.4401 117.205 54.9801C117.745 55.5001 118.005 56.1801 118.005 57.0001C118.005 57.8201 117.745 58.5001 117.205 59.0401C116.685 59.5601 116.025 59.8201 115.225 59.8201C114.425 59.8201 113.765 59.5601 113.245 59.0401Z" fill="#082854" fill-opacity="0.9"/>
</svg>
