<svg width="112" height="52" viewBox="0 0 112 52" fill="none" xmlns="http://www.w3.org/2000/svg">
    <path d="M111.916 11.8979H103.567V39.3831H111.916V11.8979Z" fill="#007CC4"/>
    <path d="M56.0654 43.3918H55.4797V46.6761H56.0654V43.3918Z" fill="#F58220"/>
    <path d="M76.3146 11.8979C77.4692 12.5781 78.4281 13.5387 79.1 14.6882C79.7718 15.8378 80.1342 17.1379 80.1526 18.4648H85.2243V39.3708H93.5607V18.4648H101.424V11.8979H76.3146Z" fill="#007CC4"/>
    <path d="M69.1745 22.4247C68.1699 23.0659 66.9765 23.356 65.7851 23.2486H63.7414V17.3088H66.1215C66.6813 17.2418 67.2491 17.2843 67.7922 17.4342C68.3354 17.584 68.8432 17.8381 69.2866 18.182C69.5653 18.4624 69.7839 18.7952 69.9295 19.1607C70.075 19.5262 70.1446 19.9169 70.134 20.3095C70.1437 20.7103 70.0625 21.1082 69.8965 21.4741C69.7305 21.8401 69.4839 22.1648 69.1745 22.4247ZM76.0031 14.0254C74.5078 12.5989 72.2648 11.8979 69.2243 11.8979H55.3676V39.3708H63.7414V28.635H68.2897C71.6542 28.635 74.1464 27.8848 75.7664 26.3722C76.6109 25.5549 77.2698 24.5698 77.6995 23.4822C78.1291 22.3946 78.3197 21.2293 78.2586 20.0635C78.3279 18.9577 78.1632 17.8497 77.7749 16.8102C77.3865 15.7706 76.7832 14.8222 76.0031 14.0254Z" fill="#007CC4"/>
    <path d="M47.2305 42.212C47.2611 41.6962 47.1365 41.183 46.8724 40.737C46.6083 40.2909 46.2165 39.9319 45.7463 39.705C45.2761 39.4782 44.7484 39.3936 44.2296 39.462C43.7108 39.5304 43.224 39.7486 42.8306 40.0893C42.4371 40.43 42.1544 40.878 42.0182 41.3768C41.8819 41.8756 41.8981 42.4031 42.0647 42.8928C42.2313 43.3826 42.5409 43.8128 42.9545 44.1294C43.3681 44.446 43.8674 44.6347 44.3894 44.672C44.7401 44.697 45.0923 44.653 45.4257 44.5426C45.759 44.4321 46.0668 44.2573 46.3311 44.0285C46.5955 43.7996 46.8111 43.5211 46.9655 43.2093C47.1199 42.8975 47.21 42.5585 47.2305 42.212Z" fill="#F58220"/>
    <path d="M30.1713 6.78223C26.6383 6.41137 23.072 7.05973 19.9048 8.64875C16.7376 10.2378 14.1054 12.6992 12.3271 15.7348C16.4586 12.8092 21.5406 11.4951 26.595 12.0456C31.6076 12.6278 36.2448 14.957 39.6716 18.6139C43.0984 22.2708 45.0896 27.015 45.2866 31.9921C46.3438 29.3638 46.777 26.5314 46.5531 23.7123C46.3292 20.8931 45.4541 18.1619 43.9949 15.7282C42.5358 13.2945 40.5312 11.2229 38.135 9.67218C35.7388 8.12149 33.0146 7.1329 30.1713 6.78223Z" fill="#007CC4"/>
    <path d="M18.4455 44.6834C21.9842 45.0062 25.5418 44.3089 28.6869 42.6762C31.8321 41.0435 34.4298 38.5454 36.1651 35.4847C32.0602 38.4778 26.9766 39.8624 21.8972 39.3708C16.882 38.8539 12.2182 36.5885 8.74403 32.9818C5.26987 29.3752 3.21327 24.6638 2.94393 19.6946C2.33244 21.2752 1.93848 22.9296 1.77259 24.6136C1.31277 29.4518 2.80599 34.2736 5.92785 38.0315C9.04971 41.7894 13.548 44.1798 18.4455 44.6834Z" fill="#F58220"/>
    <path d="M44.0779 4.53166C44.1605 3.71999 43.9971 2.90238 43.6084 2.18244C43.2197 1.46251 42.6232 0.872661 41.8945 0.487666C41.1657 0.102671 40.3375 -0.0601414 39.5149 0.0198637C38.6923 0.0998688 37.9123 0.41909 37.2737 0.937068C36.6351 1.45505 36.1667 2.14846 35.9279 2.92943C35.6891 3.7104 35.6906 4.54376 35.9322 5.32389C36.1738 6.10402 36.6447 6.7958 37.2851 7.31155C37.9255 7.82731 38.7067 8.14381 39.5296 8.22095C40.6271 8.32061 41.7202 7.98915 42.5717 7.29847C43.4232 6.60779 43.9644 5.61362 44.0779 4.53166Z" fill="#007CC4"/>
    <path d="M12.4891 47.5979C12.5717 46.7863 12.4084 45.9687 12.0197 45.2488C11.631 44.5289 11.0344 43.939 10.3057 43.5541C9.57692 43.1691 8.74876 43.0063 7.92615 43.0863C7.10353 43.1663 6.3235 43.4855 5.68492 44.0034C5.04634 44.5214 4.57796 45.2148 4.33913 45.9957C4.10031 46.7767 4.1018 47.61 4.34341 48.3901C4.58502 49.1702 5.05588 49.862 5.69631 50.3777C6.33674 50.8934 7.11791 51.2099 7.9408 51.2871C9.03836 51.3867 10.1315 51.0553 10.983 50.3646C11.8344 49.674 12.3756 48.6798 12.4891 47.5979Z" fill="#F58220"/>
    <path d="M6.29594 9.41378C6.31051 8.89601 6.1692 8.38561 5.88988 7.94709C5.61055 7.50857 5.20575 7.16162 4.72665 6.9501C4.24754 6.73858 3.71565 6.67199 3.1982 6.75875C2.68075 6.8455 2.20098 7.08171 1.81955 7.43751C1.43811 7.7933 1.17213 8.25272 1.05523 8.75767C0.938327 9.26262 0.975755 9.79044 1.16278 10.2744C1.34981 10.7584 1.67803 11.1767 2.10596 11.4767C2.5339 11.7766 3.04232 11.9445 3.56697 11.9593C3.91598 11.9708 4.26382 11.9139 4.59039 11.7918C4.91697 11.6698 5.21578 11.4851 5.46956 11.2484C5.72333 11.0116 5.92703 10.7276 6.06888 10.4127C6.21073 10.0978 6.2879 9.75829 6.29594 9.41378Z" fill="#F58220"/>
    <path d="M20.1028 7.39705C19.0584 7.05751 17.9733 6.85491 16.8754 6.79447C14.1471 6.65117 11.4516 7.43678 9.23989 9.0199C7.0282 10.603 5.43442 12.8876 4.72516 15.4915C4.01591 18.0955 4.2342 20.8608 5.34351 23.3249C6.45282 25.789 8.38588 27.8024 10.8193 29.0284C9.30538 27.1456 8.33334 24.8951 8.00535 22.5134C7.67736 20.1317 8.00555 17.7068 8.95541 15.4935C9.90527 13.2803 11.4417 11.3604 13.4033 9.93567C15.3649 8.51096 17.6791 7.63403 20.1028 7.39705Z" fill="#F58220"/>
    <path d="M27.9408 44.0807C30.7783 45.0852 33.8959 44.992 36.6665 43.8197C39.4372 42.6474 41.6551 40.4831 42.8741 37.7623C44.0932 35.0414 44.2228 31.9659 43.237 29.1545C42.2512 26.3431 40.2231 24.0045 37.5607 22.6091C39.0407 24.5148 39.9739 26.7783 40.2622 29.1623C40.5506 31.5464 40.1837 33.9631 39.1998 36.159C38.216 38.3549 36.6516 40.2491 34.6706 41.6429C32.6896 43.0367 30.3651 43.8787 27.9408 44.0807Z" fill="#F58220"/>
    <path d="M56.1651 41.8306C56.1687 41.7268 56.132 41.6256 56.0625 41.5478C55.993 41.4699 55.8959 41.4213 55.7913 41.4119C55.7395 41.4086 55.6876 41.4156 55.6387 41.4325C55.5897 41.4494 55.5447 41.4759 55.5063 41.5104C55.468 41.5449 55.437 41.5866 55.4153 41.6332C55.3936 41.6797 55.3816 41.7301 55.3801 41.7813C55.3965 41.8723 55.4449 41.9547 55.5167 42.0141C55.5884 42.0734 55.679 42.106 55.7726 42.106C55.8662 42.106 55.9568 42.0734 56.0285 42.0141C56.1003 41.9547 56.1486 41.8723 56.1651 41.7813" fill="#F58220"/>
    <path d="M62.7819 46.6764H63.3801V44.3884C63.3538 44.0931 63.2263 43.8154 63.0187 43.6012C62.9152 43.5017 62.7921 43.4242 62.6571 43.3734C62.5221 43.3227 62.378 43.2997 62.2336 43.3059C62.0174 43.3026 61.8049 43.3626 61.6231 43.4781C61.4442 43.5999 61.2952 43.7596 61.1869 43.9456V43.3797H60.6262V46.6764H61.1869V44.4991C61.2275 44.3615 61.3001 44.2352 61.3988 44.1301C61.4997 44.0306 61.6127 43.9439 61.7352 43.8718C61.8343 43.8567 61.9352 43.8567 62.0343 43.8718C62.2065 43.8666 62.3748 43.9234 62.5078 44.0317C62.648 44.1278 62.746 44.2729 62.7819 44.4376V46.6764Z" fill="#F58220"/>
    <path d="M68.676 44.5728C68.5814 44.5164 68.512 44.4265 68.4819 44.3215C68.4518 44.2164 68.4633 44.104 68.514 44.007C68.5288 43.9627 68.5531 43.9222 68.5854 43.8882C68.6177 43.8542 68.6571 43.8276 68.7009 43.8102C68.8008 43.7587 68.9123 43.7333 69.0249 43.7364C69.195 43.7347 69.3626 43.7771 69.5109 43.8594C69.6422 43.9343 69.7434 44.0516 69.7975 44.1915L70.2835 43.9209C70.1713 43.7413 70.0228 43.5863 69.8473 43.4658C69.6787 43.3501 69.4794 43.286 69.2741 43.2813C69.0919 43.2614 68.9081 43.2614 68.7259 43.2813C68.5359 43.3262 68.3576 43.41 68.2025 43.5273C68.0997 43.6039 68.0184 43.7051 67.966 43.8213C67.9137 43.9375 67.8922 44.0649 67.9034 44.1915C67.9013 44.3973 67.9718 44.5973 68.1028 44.7573C68.2389 44.9264 68.4269 45.0473 68.6386 45.1018L69.3489 45.3232C69.4538 45.3624 69.5477 45.4257 69.623 45.5077C69.6814 45.586 69.7121 45.6811 69.7103 45.7783C69.7221 45.8392 69.7221 45.9018 69.7103 45.9628C69.6688 46.0419 69.6035 46.1064 69.5234 46.1473C69.4021 46.2272 69.2577 46.266 69.1121 46.258C68.9447 46.2568 68.7808 46.21 68.6386 46.1227C68.4917 46.0266 68.3716 45.8955 68.2897 45.7414L67.8037 46.0735C67.9547 46.2749 68.1509 46.4391 68.3769 46.5532C68.6069 46.6598 68.8581 46.7145 69.1121 46.7131H69.3863H69.6355C69.8404 46.6451 70.0161 46.5107 70.1339 46.3318C70.2552 46.1581 70.3203 45.9523 70.3209 45.7414C70.3197 45.5838 70.2721 45.4299 70.1838 45.2986C70.096 45.159 69.9649 45.0511 69.81 44.991L68.676 44.5728Z" fill="#F58220"/>
    <path d="M76.7757 46.3564C76.987 46.125 77.1141 45.8307 77.1371 45.52V43.3796H76.539V45.52C76.5362 45.7086 76.4604 45.8891 76.3271 46.0243C76.1906 46.1641 76.0109 46.255 75.8162 46.2826H75.7664C75.6547 46.2851 75.5441 46.2607 75.4442 46.2114C75.3443 46.1621 75.2581 46.0894 75.1932 45.9997C75.0441 45.8051 74.9652 45.567 74.9689 45.3232V43.3796H74.3707V45.6184C74.3843 45.7802 74.4265 45.9384 74.4953 46.0858C74.6074 46.3091 74.7856 46.4936 75.0062 46.6147C75.2453 46.7183 75.5057 46.7647 75.7664 46.75H76.2274C76.4646 46.693 76.6754 46.5587 76.8256 46.3687" fill="#F58220"/>
    <path d="M83.0561 43.9947L83.405 43.5273C83.2036 43.3884 82.9652 43.3114 82.7196 43.3059C82.504 43.3362 82.308 43.4461 82.1713 43.6134C82.0174 43.784 81.9027 43.9854 81.8349 44.2038V43.4166H81.3115V46.6761H81.8847V44.6958C81.9364 44.4773 82.034 44.2719 82.1713 44.0931C82.2324 44.0151 82.3095 43.9506 82.3975 43.904C82.4856 43.8574 82.5826 43.8296 82.6822 43.8225C82.8242 43.8321 82.9574 43.8935 83.0561 43.9947Z" fill="#F58220"/>
    <path d="M89.3863 45.631C89.2984 45.8264 89.1557 45.9929 88.9751 46.1107C88.7925 46.2129 88.5868 46.2679 88.3769 46.2707C88.1388 46.2791 87.9052 46.2051 87.7165 46.0615C87.5674 45.9482 87.4461 45.8031 87.362 45.6369C87.2778 45.4707 87.2329 45.2879 87.2305 45.1021C87.2341 44.8042 87.3346 44.5153 87.5171 44.278C87.6006 44.1594 87.7078 44.0589 87.8321 43.9828C87.9564 43.9066 88.0952 43.8564 88.2399 43.8352H88.4517C88.555 43.8204 88.6599 43.8204 88.7632 43.8352C88.992 43.9228 89.1848 44.0829 89.3115 44.2903C89.4389 44.5067 89.5035 44.7535 89.4984 45.0037C89.4984 45.1977 89.4604 45.3899 89.3863 45.5695V45.631ZM89.4735 43.3801V43.9951C89.3356 43.7742 89.1425 43.5921 88.9128 43.4662C88.6941 43.3516 88.45 43.2925 88.2025 43.294H87.9657C87.6706 43.3354 87.3983 43.4741 87.1931 43.6876C87.0389 43.8489 86.9088 44.0311 86.8068 44.2288C86.6945 44.4679 86.6351 44.7279 86.6324 44.9914C86.6314 45.3044 86.7084 45.6127 86.8567 45.8893C86.9687 46.1285 87.1402 46.3359 87.3551 46.4921C87.5047 46.5821 87.6634 46.6563 87.8287 46.7135C87.953 46.7256 88.0782 46.7256 88.2025 46.7135C88.469 46.7153 88.7313 46.6474 88.9626 46.5167C89.1944 46.3963 89.3819 46.2069 89.4984 45.9754V46.6274H90.0218V43.3801H89.4735Z" fill="#F58220"/>
    <path d="M96.4268 46.6764H97.0249V44.3884C97.0016 44.0898 96.8686 43.8099 96.6511 43.6012C96.5476 43.5017 96.4245 43.4242 96.2895 43.3734C96.1545 43.3227 96.0104 43.2997 95.866 43.3059C95.6498 43.3026 95.4373 43.3626 95.2555 43.4781C95.0796 43.6033 94.9313 43.7623 94.8193 43.9456V43.3797H94.271V46.6764H94.8193V44.4991C94.8652 44.3638 94.9371 44.2385 95.0312 44.1301C95.1342 44.0278 95.2517 43.9407 95.3801 43.8718C95.4791 43.8557 95.5801 43.8557 95.6791 43.8718C95.8512 43.8677 96.0191 43.9244 96.1527 44.0317C96.2846 44.1355 96.3805 44.2774 96.4268 44.4376V46.6764Z" fill="#F58220"/>
    <path d="M103.48 46.7501C103.62 46.7218 103.747 46.6483 103.841 46.541V45.9382C103.841 45.9382 103.841 45.9382 103.717 45.9382L103.368 46.1719C103.207 46.2441 103.033 46.2819 102.857 46.2827C102.605 46.28 102.359 46.2075 102.146 46.0735L101.935 45.8767C101.887 45.8377 101.845 45.7922 101.81 45.7414C101.667 45.5299 101.589 45.2821 101.586 45.0279C101.589 44.7005 101.713 44.3855 101.935 44.1422C102.052 44.0283 102.192 43.9402 102.346 43.8839C102.503 43.8336 102.667 43.8087 102.832 43.8101H103.181C103.286 43.8407 103.387 43.8863 103.48 43.9454C103.617 44.0192 103.704 44.0438 103.741 44.0315V43.4656C103.48 43.3182 103.183 43.2418 102.882 43.2442C102.633 43.2441 102.386 43.2772 102.146 43.3426C101.921 43.409 101.713 43.5222 101.536 43.6747C101.353 43.8311 101.211 44.0297 101.125 44.2529C101.025 44.4778 100.974 44.7209 100.975 44.9664C100.976 45.2408 101.031 45.5125 101.137 45.766C101.259 46.0651 101.478 46.3159 101.76 46.4795C102.044 46.6401 102.367 46.7209 102.695 46.7132H102.907C103.085 46.7331 103.264 46.7331 103.442 46.7132" fill="#F58220"/>
    <path d="M109.611 44.0315C109.692 43.946 109.791 43.8778 109.9 43.8313C110.009 43.7847 110.127 43.7608 110.246 43.7609C110.502 43.7639 110.749 43.8553 110.944 44.0192C111.138 44.1896 111.27 44.419 111.318 44.6713H109.249C109.307 44.4288 109.432 44.2071 109.611 44.0315ZM111.43 45.6186C111.323 45.7803 111.188 45.9219 111.031 46.0369C110.892 46.1503 110.724 46.2227 110.545 46.246H110.296C110.151 46.2508 110.007 46.2222 109.875 46.1624C109.743 46.1026 109.627 46.0133 109.536 45.9015C109.33 45.6709 109.219 45.3725 109.224 45.0649H111.903C111.914 44.7285 111.855 44.3936 111.729 44.0807C111.619 43.8113 111.416 43.5891 111.156 43.4533C110.895 43.3167 110.604 43.2449 110.308 43.2441H109.785C109.47 43.3289 109.202 43.5321 109.037 43.8101C108.789 44.1358 108.657 44.5341 108.664 44.9419C108.664 45.2415 108.737 45.5366 108.875 45.8031C108.996 46.0691 109.196 46.2924 109.449 46.4429C109.711 46.5877 110.007 46.6639 110.308 46.6643C110.621 46.6638 110.929 46.5878 111.206 46.4429C111.49 46.2888 111.737 46.0745 111.928 45.8154L111.43 45.6186Z" fill="#F58220"/>
</svg>
