<svg width="177" height="77" viewBox="0 0 177 77" fill="none" xmlns="http://www.w3.org/2000/svg">
    <path d="M66.9865 13.1673C55.9795 10.2926 44.9078 5.81645 34.9682 0.22284C34.4403 -0.0742801 33.7851 -0.0742801 33.2573 0.22284C23.0311 5.97715 12.5576 10.2112 1.23812 13.1673C0.506874 13.3581 0 13.9917 0 14.7144V31.1039C0 47.9813 8.16858 59.1531 15.0214 65.5529C22.3989 72.4432 30.9926 76.2537 34.1128 76.2537C37.2326 76.2537 45.8264 72.4432 53.2038 65.5529C60.0565 59.1532 68.2246 47.9815 68.2246 31.1039V14.7143C68.2246 13.9917 67.7177 13.3581 66.9865 13.1673ZM64.859 31.1037C64.859 46.8672 57.2401 57.2917 50.8482 63.2612C43.5934 70.0369 35.8367 73.0454 34.1128 73.0454C32.3889 73.0454 24.6317 70.0369 17.3767 63.2612C10.985 57.2916 3.36578 46.8672 3.36578 31.1037V15.932C14.1905 13.0024 24.2714 8.9141 34.1131 3.46272C43.709 8.76949 54.2929 13.0611 64.859 15.9314V31.1037Z" fill="#082854"/>
    <path d="M19.1963 15.7524C18.8557 14.9281 17.8787 14.5231 17.0137 14.848C14.0075 15.977 10.9219 17.0163 7.84266 17.937C7.14095 18.147 6.66345 18.7665 6.66345 19.4674V25.6617C6.66345 26.5475 7.41704 27.2657 8.34625 27.2657C9.27546 27.2657 10.0291 26.5475 10.0291 25.6617V20.6397C12.7914 19.7878 15.5507 18.8455 18.2474 17.8326C19.1123 17.5081 19.5371 16.5768 19.1963 15.7524Z" fill="#082854"/>
    <path d="M22.3931 16.0567C22.6189 16.0567 22.8481 16.0134 23.0679 15.9219L23.0989 15.9091C23.9503 15.5535 24.3337 14.6088 23.9606 13.7976C23.5872 12.9861 22.5904 12.6189 21.74 12.9743L21.7128 12.9855C20.8609 13.3401 20.4762 14.284 20.8482 15.0957C21.1243 15.6982 21.7439 16.0567 22.3931 16.0567Z" fill="#082854"/>
    <path d="M46.5 30.5891C41.7884 30.5891 36.3784 32.945 36.15 33.0435C35.7316 33.2278 35.5484 33.6996 35.7416 34.0983C35.935 34.4955 36.43 34.6702 36.8483 34.4876C36.9016 34.4637 42.1583 32.1777 46.4999 32.1777C50.7499 32.1777 52.3333 33.1515 52.3333 33.7663C52.3333 36.7291 26.2433 46.4752 20.6666 46.4752C19.73 46.4752 17.22 46.4752 16.0433 46.2718C16.5899 45.862 17.5699 45.279 18.5483 44.7976C18.7599 44.6928 18.9133 44.5101 18.9733 44.2909C19.0333 44.0717 18.9916 43.8381 18.8599 43.6507L15.9066 39.4266L16.6649 38.7038L22.7933 41.6252C23.0266 41.7364 23.3033 41.7364 23.5383 41.6252L28.5383 39.2423C28.9499 39.0453 29.1183 38.5688 28.9116 38.1763C28.705 37.7855 28.205 37.625 27.7933 37.8221L23.1666 40.0271L16.8733 37.0262C16.5516 36.8737 16.1649 36.9324 15.9116 37.1755L14.245 38.7641C13.9634 39.0325 13.92 39.4519 14.14 39.7665L16.965 43.8047C14 45.3823 14 46.1654 14 46.4752C14 47.9065 16.135 48.0638 20.6666 48.0638C25.1033 48.0638 54 38.7624 54 33.7663C54 32.81 53.27 30.5891 46.5 30.5891Z" fill="#082854" stroke="#082854" stroke-width="0.8"/>
    <path d="M38.9934 34.462C38.9518 34.149 38.7218 33.8901 38.405 33.7996L21.7384 29.0337C21.4451 28.9495 21.1284 29.0257 20.9101 29.2323L17.5767 32.4096C17.3933 32.5844 17.3051 32.8305 17.3401 33.0768C17.3751 33.3231 17.5284 33.5391 17.7534 33.6614L29.4201 40.0159C29.5484 40.0858 29.6917 40.1207 29.8334 40.1207C29.9818 40.1207 30.13 40.0826 30.2618 40.0079L38.5951 35.2421C38.8784 35.08 39.0334 34.7734 38.9934 34.462ZM29.8217 38.4066L19.5267 32.7987L21.7383 30.6922L36.1183 34.8052L29.8217 38.4066Z" fill="#082854" stroke="#082854" stroke-width="0.8"/>
    <path d="M51.5 31.3834C47.9033 31.3834 45.9965 33.1245 45.9165 33.1976C45.5899 33.5042 45.5849 34.0015 45.9032 34.316C46.0648 34.4765 46.2832 34.5575 46.5016 34.5575C46.7082 34.5575 46.9166 34.4844 47.0782 34.3383C47.1398 34.2826 48.6182 32.972 51.4999 32.972C51.9599 32.972 52.3333 32.6162 52.3333 32.1777C52.3333 31.7392 51.96 31.3834 51.5 31.3834Z" fill="#082854" stroke="#082854" stroke-width="0.8"/>
    <path d="M47.3116 50.2529L44.8116 40.7212C44.7 40.2938 44.2433 40.0365 43.8016 40.143C43.355 40.2494 43.0833 40.68 43.195 41.1057L45.5316 50.0194L43.3916 51.0393L36.3133 42.7944C36.0199 42.4528 35.4949 42.4036 35.1399 42.6815C34.7833 42.9612 34.7299 43.4616 35.0216 43.7999L42.5215 52.5373C42.6832 52.7279 42.9232 52.8296 43.1665 52.8296C43.2932 52.8296 43.4199 52.8026 43.5432 52.7438L46.8765 51.1552C47.225 50.9884 47.4066 50.6135 47.3116 50.2529Z" fill="#082854" stroke="#082854" stroke-width="0.8"/>
    <path d="M93.9846 26.7401C94.8646 26.0401 95.3046 25.1001 95.3046 23.9401C95.3046 22.8001 94.8846 21.8601 94.0646 21.1201C93.2446 20.3801 92.2446 20.0001 91.0446 20.0001H85.5246V34.0001H91.4646C92.6846 34.0001 93.7246 33.6201 94.5646 32.8601C95.4046 32.1001 95.8246 31.1201 95.8246 29.9401C95.8246 28.5201 95.2046 27.4401 93.9846 26.7401ZM91.0446 22.5801C91.9246 22.5801 92.5446 23.2401 92.5446 24.1201C92.5446 25.0001 91.9046 25.6601 91.0446 25.6601H88.2846V22.5801H91.0446ZM88.2846 31.4201V28.1201H91.4646C92.4046 28.1201 93.0846 28.8201 93.0846 29.7601C93.0846 30.7201 92.4046 31.4201 91.4646 31.4201H88.2846ZM104.214 22.9001C104.154 22.4201 104.294 22.3001 104.554 22.1801C104.974 21.9601 105.354 21.4801 105.354 20.7001C105.354 19.6401 104.494 19.0401 103.354 19.0401C102.234 19.0401 101.474 19.5401 101.034 20.5401L102.534 21.1001C102.714 20.6001 102.994 20.5201 103.314 20.5201C103.554 20.5201 103.634 20.6401 103.634 20.7601C103.634 20.9801 103.494 21.1201 103.394 21.1801C103.414 21.1601 103.214 21.3001 103.214 21.3001C102.694 21.5601 102.514 21.7601 102.514 22.9001H104.214ZM105.114 25.1801C104.334 24.2001 103.254 23.7201 101.854 23.7201C100.514 23.7201 99.374 24.2401 98.414 25.2601C97.474 26.2801 96.994 27.5201 96.994 29.0001C96.994 30.4801 97.474 31.7401 98.414 32.7601C99.374 33.7801 100.514 34.2801 101.854 34.2801C103.254 34.2801 104.334 33.8001 105.114 32.8201V34.0001H107.694V24.0001H105.114V25.1801ZM100.354 31.0401C99.834 30.5001 99.574 29.8201 99.574 29.0001C99.574 28.1801 99.834 27.5001 100.354 26.9801C100.874 26.4401 101.534 26.1801 102.334 26.1801C103.134 26.1801 103.794 26.4401 104.314 26.9801C104.854 27.5001 105.114 28.1801 105.114 29.0001C105.114 29.8201 104.854 30.5001 104.314 31.0401C103.794 31.5601 103.134 31.8201 102.334 31.8201C101.534 31.8201 100.874 31.5601 100.354 31.0401ZM118.554 32.7601C119.574 31.7401 120.094 30.4801 120.094 29.0001C120.094 27.5201 119.574 26.2801 118.554 25.2601C117.534 24.2401 116.274 23.7201 114.794 23.7201C113.314 23.7201 112.054 24.2401 111.034 25.2601C110.014 26.2801 109.514 27.5201 109.514 29.0001C109.514 30.4801 110.014 31.7401 111.034 32.7601C112.054 33.7801 113.314 34.2801 114.794 34.2801C116.274 34.2801 117.534 33.7801 118.554 32.7601ZM112.854 30.9801C112.354 30.4601 112.094 29.8001 112.094 29.0001C112.094 28.2001 112.354 27.5401 112.854 27.0201C113.374 26.5001 114.014 26.2401 114.794 26.2401C115.574 26.2401 116.214 26.5001 116.734 27.0201C117.254 27.5401 117.514 28.2001 117.514 29.0001C117.514 29.8001 117.254 30.4601 116.734 30.9801C116.214 31.5001 115.574 31.7601 114.794 31.7601C114.014 31.7601 113.374 31.5001 112.854 30.9801ZM132.469 23.7201C131.109 23.7201 130.109 24.1801 129.489 25.1201V20.0001H126.909V34.0001H129.489V28.6001C129.489 26.9401 130.349 26.1201 131.689 26.1201C132.889 26.1201 133.669 26.8401 133.669 28.1801V34.0001H136.249V27.8601C136.249 26.5601 135.889 25.5601 135.169 24.8201C134.469 24.0801 133.569 23.7201 132.469 23.7201ZM139.731 23.1201C140.611 23.1201 141.331 22.4201 141.331 21.5801C141.331 20.7401 140.611 20.0201 139.731 20.0201C138.871 20.0201 138.151 20.7401 138.151 21.5801C138.151 22.4201 138.871 23.1201 139.731 23.1201ZM141.031 34.0001V24.0001H138.451V34.0001H141.031ZM149.013 22.8201H151.393L149.413 20.1201H146.973L145.013 22.8201H147.393L148.213 21.6001L149.013 22.8201ZM153.113 30.0601C153.173 29.6801 153.213 29.3401 153.213 29.0001C153.213 27.5001 152.733 26.2601 151.773 25.2401C150.833 24.2201 149.613 23.7201 148.153 23.7201C146.613 23.7201 145.333 24.2201 144.353 25.2401C143.373 26.2401 142.873 27.5001 142.873 29.0001C142.873 30.5201 143.373 31.7801 144.373 32.7801C145.373 33.7801 146.693 34.2801 148.353 34.2801C150.273 34.2801 151.733 33.5601 152.713 32.1401L150.633 30.9401C150.133 31.6001 149.373 31.9401 148.393 31.9401C146.853 31.9401 145.913 31.3201 145.573 30.0601H153.113ZM145.533 28.0601C145.833 26.7801 146.773 26.0401 148.153 26.0401C149.333 26.0401 150.333 26.7001 150.633 28.0601H145.533ZM152.053 20.8201C152.013 20.3801 152.133 20.2601 152.373 20.1401C152.773 19.9401 153.113 19.5001 153.113 18.7801C153.113 17.7801 152.313 17.2201 151.253 17.2201C150.213 17.2201 149.513 17.7001 149.113 18.6201L150.493 19.1401C150.673 18.6801 150.933 18.6001 151.233 18.6001C151.453 18.6001 151.513 18.7201 151.513 18.8201C151.513 19.0401 151.393 19.1601 151.293 19.2201C151.313 19.2001 151.133 19.3201 151.133 19.3201C150.653 19.5801 150.473 19.7601 150.473 20.8201H152.053ZM166.074 23.7201C164.754 23.7201 163.754 24.2001 163.094 25.1601C162.514 24.2001 161.594 23.7201 160.374 23.7201C159.114 23.7201 158.194 24.1601 157.594 25.0601V24.0001H155.014V34.0001H157.594V28.3801C157.594 26.9201 158.334 26.1201 159.474 26.1201C160.534 26.1201 161.154 26.8201 161.154 28.0201V34.0001H163.734V28.3801C163.734 26.9201 164.414 26.1201 165.594 26.1201C166.654 26.1201 167.274 26.8201 167.274 28.0201V34.0001H169.854V27.8401C169.854 25.3401 168.374 23.7201 166.074 23.7201ZM85.5246 48.0001V62.0001H91.0846C93.0046 62.0001 94.6046 61.3201 95.8846 59.9801C97.1846 58.6401 97.8246 56.9801 97.8246 55.0001C97.8246 53.0201 97.1846 51.3601 95.8846 50.0201C94.6046 48.6801 93.0046 48.0001 91.0846 48.0001H85.5246ZM88.2846 59.3601V50.6401H91.0846C92.3046 50.6401 93.2846 51.0401 94.0446 51.8601C94.8046 52.6601 95.1846 53.7001 95.1846 55.0001C95.1846 56.3001 94.8046 57.3401 94.0446 58.1601C93.2846 58.9601 92.3046 59.3601 91.0846 59.3601H88.2846ZM106.36 57.4001C106.36 59.0601 105.5 59.8801 104.16 59.8801C102.96 59.8801 102.18 59.1601 102.18 57.8201V52.0001H99.6001V58.1401C99.6001 59.4401 99.9601 60.4401 100.66 61.1801C101.38 61.9201 102.28 62.2801 103.38 62.2801C104.74 62.2801 105.74 61.8201 106.36 60.8801V62.0001H108.94V52.0001H106.36V57.4001ZM118.883 62.0001V47.4001H116.303V62.0001H118.883ZM122.564 66.5601C123.444 66.5601 124.164 65.8601 124.164 65.0201C124.164 64.1801 123.444 63.4601 122.564 63.4601C121.704 63.4601 120.984 64.1801 120.984 65.0201C120.984 65.8601 121.704 66.5601 122.564 66.5601ZM122.524 51.1201C123.404 51.1201 124.124 50.4201 124.124 49.5801C124.124 48.7401 123.404 48.0201 122.524 48.0201C121.664 48.0201 120.944 48.7401 120.944 49.5801C120.944 50.4201 121.664 51.1201 122.524 51.1201ZM123.824 62.0001V52.0001H121.244V62.0001H123.824ZM130.946 62.2801C132.886 62.2801 134.586 61.2601 135.466 59.6801L133.226 58.4001C132.826 59.2201 131.966 59.7201 130.926 59.7201C130.146 59.7201 129.506 59.4601 129.006 58.9601C128.506 58.4401 128.246 57.7801 128.246 57.0001C128.246 55.4001 129.386 54.2601 130.926 54.2601C131.946 54.2601 132.806 54.7801 133.206 55.6001L135.426 54.3001C134.606 52.7201 132.886 51.7201 130.946 51.7201C129.446 51.7201 128.186 52.2201 127.166 53.2401C126.166 54.2601 125.666 55.5001 125.666 57.0001C125.666 58.5001 126.166 59.7401 127.166 60.7601C128.186 61.7801 129.446 62.2801 130.946 62.2801ZM142.469 51.7201C141.109 51.7201 140.109 52.1801 139.489 53.1201V48.0001H136.909V62.0001H139.489V56.6001C139.489 54.9401 140.349 54.1201 141.689 54.1201C142.889 54.1201 143.669 54.8401 143.669 56.1801V62.0001H146.249V55.8601C146.249 54.5601 145.889 53.5601 145.169 52.8201C144.469 52.0801 143.569 51.7201 142.469 51.7201Z" fill="#082854" fill-opacity="0.9"/>
</svg>
