<svg width="117" height="93" viewBox="0 0 117 93" fill="none" xmlns="http://www.w3.org/2000/svg">
    <path d="M107.069 79.0638C118.099 67.2516 116.989 52.0825 116.954 51.9094V34.6063V5.76772C116.954 2.58394 114.341 0 111.108 0H76.0341C69.5864 0 64.3429 5.17364 64.3429 11.5354V51.9094C64.3429 55.0932 66.9559 57.6772 70.1885 57.6772H76.0341H88.1814C88.0586 59.9958 87.4624 62.9373 85.6736 65.7289C82.704 70.3488 77.1097 73.5038 69.0369 75.0957L64.3429 76.0185V92.2834H70.1885C86.4569 92.2834 98.8672 87.8365 107.069 79.0638ZM42.7257 79.0638C53.7623 67.2516 52.6458 52.0825 52.6107 51.9094V34.6063V5.76772C52.6107 2.58394 49.9977 0 46.7651 0H11.6913C5.24353 0 0 5.17364 0 11.5354V51.9094C0 55.0932 2.613 57.6772 5.84563 57.6772H11.6913H23.8385C23.7157 59.9958 23.1195 62.9373 21.3307 65.7289C18.3611 70.3488 12.7669 73.5038 4.69404 75.0957L0 76.0185V92.2834H5.84563C22.114 92.2834 34.5243 87.8365 42.7257 79.0638Z" fill="#333333" fill-opacity="0.03"/>
</svg>
