<svg width="199" height="45" viewBox="0 0 199 45" fill="none" xmlns="http://www.w3.org/2000/svg">
<path d="M38.0842 20.3943L38.0842 20.3944L28.6146 31.0171L28.4879 31.1593V31.3498V43.4832V44.0557L29.0552 43.9786C30.6784 43.7579 31.9161 43.1205 32.748 42.5379C33.1639 42.2465 33.4799 41.9679 33.6939 41.7597C33.801 41.6555 33.8829 41.5686 33.9393 41.5062C33.9675 41.475 33.9893 41.4499 34.0048 41.4317L34.023 41.4101L34.0233 41.4098L54.4766 18.3928C55.2774 17.5348 54.6154 16.218 53.4969 16.218H47.5036C43.8896 16.218 40.4506 17.7403 38.0842 20.3943Z" fill="#E10600" stroke="white"/>
<path d="M18.2407 20.3944L18.2406 20.3944C15.8742 17.7403 12.4352 16.218 8.82124 16.218H2.82795C1.70859 16.218 1.04869 17.5353 1.84811 18.3927L22.3021 41.4097L22.3024 41.41L22.3205 41.4317C22.336 41.4498 22.3578 41.4749 22.386 41.5062C22.4424 41.5686 22.5242 41.6554 22.6313 41.7596C22.8453 41.9679 23.1612 42.2465 23.5771 42.5379C24.4088 43.1205 25.6464 43.7579 27.2696 43.9786L27.837 44.0557V43.4832V31.3498V31.1593L27.7102 31.0171L18.2407 20.3944Z" fill="#E10600" stroke="white"/>
<path d="M28.4881 28.8973V30.2096L29.3613 29.23L38.8794 18.5523C38.8794 18.5523 38.8794 18.5523 38.8794 18.5523C40.093 17.191 40.763 15.4506 40.763 13.6467V1.81642C40.763 0.592182 39.2345 0.098765 38.4593 0.969191C38.4592 0.969233 38.4592 0.969274 38.4591 0.969315C38.4591 0.969379 38.459 0.969442 38.459 0.969506L28.6149 12.0095L28.4881 12.1517V12.3423V28.8973Z" fill="#E10600" stroke="white"/>
<path d="M26.9635 29.23L27.8367 30.2096V28.8973V12.3423V12.1517L27.7099 12.0095L17.8662 0.969284C17.8662 0.969257 17.8662 0.96923 17.8662 0.969203C17.0907 0.0992426 15.5619 0.591545 15.5619 1.81642V13.6467C15.5619 15.4506 16.2318 17.191 17.4454 18.5523L26.9635 29.23Z" fill="#E10600" stroke="white"/>
<mask id="mask0" mask-type="alpha" maskUnits="userSpaceOnUse" x="193" y="16" width="6" height="6">
<path d="M193.117 16.813H198.269V21.8081H193.117V16.813Z" fill="white"/>
</mask>
<g mask="url(#mask0)">
<path fill-rule="evenodd" clip-rule="evenodd" d="M195.347 18.4567V19.139H195.699C196.051 19.139 196.228 19.0221 196.228 18.7873C196.228 18.5678 196.051 18.4567 195.699 18.4567H195.347ZM194.685 20.7723V17.8907H195.743C196.081 17.8907 196.344 17.9439 196.527 18.0511C196.769 18.2218 196.89 18.4567 196.89 18.7552C196.89 19.19 196.685 19.4776 196.273 19.6208C196.375 19.7703 196.618 20.1536 197.001 20.7723H196.228L195.578 19.7056H195.347V20.7723H194.685ZM197.762 19.3103C197.762 18.7552 197.558 18.2779 197.15 17.8798C196.742 17.4816 196.258 17.2823 195.699 17.2823C195.125 17.2823 194.638 17.4805 194.237 17.8741C193.836 18.2694 193.636 18.7483 193.636 19.3103C193.636 19.8723 193.834 20.3518 194.232 20.7466C194.628 21.1419 195.114 21.3389 195.688 21.3389C196.254 21.3389 196.742 21.1419 197.15 20.7466C197.558 20.3518 197.762 19.8723 197.762 19.3103ZM197.514 17.5441C198.018 18.0316 198.27 18.6205 198.27 19.3103C198.27 20.0006 198.018 20.5896 197.514 21.0771C197.01 21.5647 196.401 21.8081 195.688 21.8081C194.982 21.8081 194.377 21.5647 193.873 21.0771C193.369 20.5896 193.117 20.0006 193.117 19.3103C193.117 18.6205 193.367 18.0316 193.867 17.5441C194.368 17.056 194.978 16.813 195.699 16.813C196.405 16.813 197.01 17.056 197.514 17.5441Z" fill="white"/>
</g>
<path d="M183.54 37.1738L183.55 37.1625L183.55 37.1625L194.157 25.2265C194.565 24.7887 194.228 24.1142 193.655 24.1142H190.547C188.676 24.1142 186.895 24.9026 185.67 26.2769C185.67 26.2769 185.67 26.2769 185.67 26.2769L180.76 31.7853L180.696 31.8564V31.9516V38.2432V38.5295L180.98 38.4909C181.82 38.3767 182.46 38.047 182.89 37.7456C183.106 37.5949 183.269 37.4508 183.38 37.3432C183.435 37.2893 183.477 37.2444 183.506 37.2122C183.521 37.1961 183.532 37.1831 183.54 37.1738Z" fill="#E10600" stroke="white" stroke-width="0.5"/>
<path fill-rule="evenodd" clip-rule="evenodd" d="M186.227 34.2506L184.788 35.8123C183.921 36.753 183.899 38.1681 184.734 39.1351C186.221 40.8567 188.445 43.5402 188.445 43.5402H194.101L186.227 34.2506Z" fill="white"/>
<path fill-rule="evenodd" clip-rule="evenodd" d="M70.3297 43.54L61.0265 16.7279H66.9647L73.7343 37.335L80.4641 16.7279H86.442L77.0992 43.54H70.3297Z" fill="white"/>
<path fill-rule="evenodd" clip-rule="evenodd" d="M99.2497 29.7894C101.586 29.7894 103.288 28.0277 103.288 25.7293C103.288 23.393 101.586 21.6692 99.2497 21.6692H94.3809V29.7894H99.2497ZM99.2497 16.7279C101.902 16.7279 104.159 17.609 105.98 19.3329C107.801 21.0562 108.711 23.2011 108.711 25.7293C108.711 28.2569 107.801 30.4024 105.98 32.1257C104.159 33.8495 101.902 34.7306 99.2497 34.7306H94.3809V43.5401H88.9181V16.7279H99.2497Z" fill="white"/>
<path fill-rule="evenodd" clip-rule="evenodd" d="M123.029 38.5988C124.89 38.5988 126.236 37.2582 126.236 35.4198C126.236 33.6198 124.89 32.2792 123.029 32.2792H116.735V38.5988H123.029ZM116.735 21.6691V27.5677H122.197C123.9 27.5677 125.166 26.3039 125.166 24.6184C125.166 22.9329 123.939 21.6691 122.197 21.6691H116.735ZM131.659 35.7647C131.659 38.0242 130.827 39.901 129.165 41.3562C127.503 42.8125 125.443 43.54 123.029 43.54H111.272V16.7279H122.197C124.572 16.7279 126.552 17.4555 128.175 18.8728C129.798 20.2902 130.63 22.0908 130.63 24.2741C130.63 26.4952 129.759 28.2958 128.017 29.6358C130.431 30.9764 131.659 33.0451 131.659 35.7647Z" fill="white"/>
<path fill-rule="evenodd" clip-rule="evenodd" d="M172.036 25.9587C173.461 27.3766 174.173 29.2912 174.173 31.781V43.5398H169.067V32.394C169.067 29.828 167.523 28.4485 165.148 28.4485C162.495 28.4485 160.794 30.0194 160.794 33.1984V43.5398H155.687V24.389H160.794V26.5333C162.02 24.7333 164 23.8521 166.692 23.8521C168.869 23.8521 170.65 24.5419 172.036 25.9587Z" fill="white"/>
<path fill-rule="evenodd" clip-rule="evenodd" d="M180.957 32.8155V43.5402H175.85V16.728H180.957V32.8155Z" fill="white"/>
<mask id="mask1" mask-type="alpha" maskUnits="userSpaceOnUse" x="132" y="23" width="23" height="22">
<path d="M132.832 23.8521H154.011V44.0764H132.832V23.8521Z" fill="white"/>
</mask>
<g mask="url(#mask1)">
<path fill-rule="evenodd" clip-rule="evenodd" d="M143.359 39.4928C140.19 39.4928 137.622 37.0082 137.622 33.9426C137.622 30.8782 140.19 28.3929 143.359 28.3929C146.526 28.3929 149.095 30.8782 149.095 33.9426C149.095 37.0082 146.526 39.4928 143.359 39.4928ZM148.904 24.389V26.6485C147.36 24.7716 145.222 23.8521 142.451 23.8521C139.799 23.8521 137.542 24.8484 135.642 26.802C133.782 28.7556 132.832 31.1297 132.832 33.9644C132.832 36.7991 133.782 39.2121 135.642 41.1651C137.542 43.1187 139.799 44.0766 142.451 44.0766C145.222 44.0766 147.36 43.1571 148.904 41.2803V43.5398H154.011V24.389H148.904Z" fill="white"/>
</g>
</svg>
