<svg width="290" height="240" viewBox="0 0 290 240" fill="none" xmlns="http://www.w3.org/2000/svg">
    <g clip-path="url(#clip0)">
        <path d="M196.768 140.32C217.805 115.467 222.412 104.898 221.898 74.4414C221.384 43.9843 244.36 1.0541 232.135 10.4856C219.909 19.9171 202.72 51.3746 210.058 75.6641C217.396 99.9536 215.666 107.943 213.09 114.626C210.513 121.309 196.416 138.306 196.416 138.306L196.768 140.32Z" fill="#9CD499"/>
        <path d="M209.601 123.888L209.806 123.583C210.817 121.134 215.952 108.493 216.386 102.59C216.87 96.0364 211.175 80.8634 214.587 67.9086C218 54.9537 218.18 43.4877 219.093 34.5783C220.299 22.8226 229.735 11.7035 235.512 9.65216C235.465 9.55525 235.402 9.467 235.325 9.39111L233.781 9.42311C233.196 9.71854 232.645 10.0748 232.135 10.4858C219.908 19.9174 202.721 51.3748 210.059 75.6643C217.397 99.9538 215.667 107.944 213.09 114.627C212.395 116.429 210.86 118.982 208.993 121.751L209.601 123.888Z" fill="#74B570"/>
        <path d="M192.855 175.209C207.496 140.255 209.728 127.336 210.034 96.0717C210.341 64.808 281.998 14.1035 277.028 25.0255C272.058 35.9475 258.282 62.7078 238.664 76.3228C219.046 89.9379 213.748 104.083 212.101 120.184C210.454 136.285 196.808 170.926 196.808 170.926L193.287 176.841L192.855 175.209Z" fill="#9CD499"/>
        <path d="M211.724 190.703C216.571 165.845 215.896 178.259 208.176 143.197C199.34 103.073 246.476 72.3782 252.418 87.1587C258.36 101.939 262.737 147.104 259.694 145.378C256.65 143.652 239.298 100.518 238.565 102.197C237.833 103.876 208.563 115.785 208.396 130.598C208.23 145.41 216.804 169.732 216.804 169.732L214.582 191.251L211.724 190.703Z" fill="#9CD499"/>
        <path d="M197.219 142.079L197.556 141.755C197.573 138.68 197.762 135.609 198.12 132.555C197.488 135.689 197.186 138.881 197.219 142.079Z" fill="#74B570"/>
        <path d="M211.515 119.955C210.503 121.98 209.749 124.124 209.271 126.337C214.279 114.003 236.825 104.494 238.396 102.689L238.689 102.226C230.812 99.2396 216.867 109.431 211.515 119.955Z" fill="#74B570"/>
        <path d="M72.6298 208.487C72.2626 207.372 46.6241 174.697 47.8333 147.827C48.6754 129.015 43.0771 108.619 43.0771 108.619C43.0771 108.619 61.2867 122.261 61.8475 152.11C62.1844 170.476 61.6134 175.787 62.7823 180.839C63.9511 185.892 74.4807 209.607 74.4807 209.607L72.6298 208.487Z" fill="#9CD499"/>
        <path d="M64.3603 203.421C65.327 205.176 66.1725 208.206 66.8866 211.645H68.5859C62.7081 182.783 50.4067 165.846 31.5336 153.006C8.16531 137.104 6.60742 132.337 6.60742 132.337C6.60742 132.337 14.5821 168.226 28.3184 179.224C42.0548 190.222 60.9532 197.235 64.3603 203.421Z" fill="#9CD499"/>
        <path d="M54.339 208.273C56.6396 208.366 58.7971 209.727 60.7171 211.641H64.6732C60.3263 204.191 54.6522 198.042 47.7976 197.999C30.5042 197.878 27.06 202.348 15.1797 201.998C10.0619 201.845 4.97429 201.156 0 199.943C0 199.943 5.86607 210.591 21.6083 213.233C32.7391 215.101 46.0106 207.935 54.339 208.273Z" fill="#9CD499"/>
        <path d="M190.394 217.061C210.008 178.261 230.698 162.749 258.341 156.856C285.984 150.963 289.236 147.142 289.236 147.142C289.236 147.142 268.291 177.356 251.417 182.341C234.543 187.327 214.395 186.685 208.905 191.124C203.414 195.564 193.331 215.209 193.331 215.209L189.931 217.866L190.394 217.061Z" fill="#9CD499"/>
        <path d="M199.524 230.735C199.356 230.013 207.765 190.724 225.045 189.991C242.324 189.259 245.929 193.604 257.784 192.833C262.892 192.499 267.952 191.631 272.879 190.244C272.879 190.244 267.395 201.092 251.756 204.29C240.698 206.55 227.182 199.857 218.87 200.491C210.559 201.124 204.705 218.256 204.705 218.256L202.441 227.234L199.524 230.735Z" fill="#9CD499"/>
        <path d="M87.4902 22.4808H179.574C179.573 19.4695 178.377 16.5816 176.248 14.4522C174.118 12.3229 171.23 11.1264 168.219 11.126H98.8434C95.8322 11.1264 92.9445 12.3229 90.8154 14.4523C88.6863 16.5817 87.4902 19.4696 87.4902 22.4808Z" fill="#93B1C2"/>
        <path d="M207.699 17.0073H57.5947V218.928H207.699V17.0073Z" fill="#BDCCD4"/>
        <path d="M201.297 25.6167H63.9941V210.316H201.297V25.6167Z" fill="white"/>
        <path opacity="0.7" d="M190.759 63.5581H76.6814C75.7857 63.5581 75.0596 64.2842 75.0596 65.18V65.2911C75.0596 66.1869 75.7857 66.913 76.6814 66.913H190.759C191.655 66.913 192.381 66.1869 192.381 65.2911V65.18C192.381 64.2842 191.655 63.5581 190.759 63.5581Z" fill="#9EC8FF"/>
        <path opacity="0.7" d="M190.759 70.0693H76.6814C75.7857 70.0693 75.0596 70.7955 75.0596 71.6912V71.8024C75.0596 72.6981 75.7857 73.4243 76.6814 73.4243H190.759C191.655 73.4243 192.381 72.6981 192.381 71.8024V71.6912C192.381 70.7955 191.655 70.0693 190.759 70.0693Z" fill="#9EC8FF"/>
        <path opacity="0.7" d="M166.567 88.616H76.6947C76.4756 88.6231 76.2574 88.586 76.0529 88.507C75.8485 88.4281 75.662 88.3088 75.5045 88.1563C75.3471 88.0038 75.2219 87.8213 75.1364 87.6195C75.0509 87.4177 75.0068 87.2007 75.0068 86.9815C75.0068 86.7624 75.0509 86.5454 75.1364 86.3436C75.2219 86.1418 75.3471 85.9592 75.5045 85.8068C75.662 85.6543 75.8485 85.535 76.0529 85.4561C76.2574 85.3771 76.4756 85.34 76.6947 85.347H166.567C166.991 85.3607 167.394 85.5388 167.689 85.8439C167.985 86.1489 168.15 86.5569 168.15 86.9815C168.15 87.4062 167.985 87.8142 167.689 88.1192C167.394 88.4243 166.991 88.6024 166.567 88.616Z" fill="#9EC8FF"/>
        <path opacity="0.7" d="M166.567 94.47H76.6952C76.2619 94.47 75.8464 94.2979 75.54 93.9915C75.2336 93.6851 75.0615 93.2696 75.0615 92.8363C75.0615 92.403 75.2336 91.9875 75.54 91.6811C75.8464 91.3748 76.2619 91.2026 76.6952 91.2026H166.567C167.001 91.2026 167.416 91.3748 167.723 91.6811C168.029 91.9875 168.201 92.403 168.201 92.8363C168.201 93.2696 168.029 93.6851 167.723 93.9915C167.416 94.2979 167.001 94.47 166.567 94.47Z" fill="#9EC8FF"/>
        <path opacity="0.7" d="M166.567 111.403H76.6952C76.4807 111.403 76.2682 111.361 76.07 111.279C75.8718 111.197 75.6917 111.076 75.54 110.925C75.3883 110.773 75.268 110.593 75.1859 110.395C75.1038 110.196 75.0615 109.984 75.0615 109.769C75.0615 109.555 75.1038 109.342 75.1859 109.144C75.268 108.946 75.3883 108.766 75.54 108.614C75.6917 108.463 75.8718 108.342 76.07 108.26C76.2682 108.178 76.4807 108.136 76.6952 108.136H166.567C167.001 108.136 167.416 108.308 167.723 108.614C168.029 108.921 168.201 109.336 168.201 109.769C168.201 110.203 168.029 110.618 167.723 110.925C167.416 111.231 167.001 111.403 166.567 111.403Z" fill="#9EC8FF"/>
        <path opacity="0.7" d="M166.567 117.259H76.6947C76.4756 117.266 76.2574 117.229 76.0529 117.15C75.8485 117.071 75.662 116.952 75.5045 116.799C75.3471 116.647 75.2219 116.464 75.1364 116.263C75.0509 116.061 75.0068 115.844 75.0068 115.625C75.0068 115.405 75.0509 115.188 75.1364 114.987C75.2219 114.785 75.3471 114.602 75.5045 114.45C75.662 114.297 75.8485 114.178 76.0529 114.099C76.2574 114.02 76.4756 113.983 76.6947 113.99H166.567C166.991 114.004 167.394 114.182 167.689 114.487C167.985 114.792 168.15 115.2 168.15 115.625C168.15 116.049 167.985 116.457 167.689 116.762C167.394 117.067 166.991 117.245 166.567 117.259Z" fill="#9EC8FF"/>
        <path opacity="0.7" d="M166.567 138.226H76.6952C76.2619 138.226 75.8464 138.054 75.54 137.747C75.2336 137.441 75.0615 137.025 75.0615 136.592C75.0615 136.159 75.2336 135.743 75.54 135.437C75.8464 135.131 76.2619 134.958 76.6952 134.958H166.567C167.001 134.958 167.416 135.131 167.723 135.437C168.029 135.743 168.201 136.159 168.201 136.592C168.201 137.025 168.029 137.441 167.723 137.747C167.416 138.054 167.001 138.226 166.567 138.226Z" fill="#9EC8FF"/>
        <path opacity="0.7" d="M166.567 144.081H76.6947C76.4756 144.088 76.2574 144.051 76.0529 143.972C75.8485 143.893 75.662 143.774 75.5045 143.622C75.3471 143.469 75.2219 143.287 75.1364 143.085C75.0509 142.883 75.0068 142.666 75.0068 142.447C75.0068 142.228 75.0509 142.011 75.1364 141.809C75.2219 141.607 75.3471 141.425 75.5045 141.272C75.662 141.12 75.8485 141 76.0529 140.921C76.2574 140.842 76.4756 140.805 76.6947 140.812H166.567C166.991 140.826 167.394 141.004 167.689 141.309C167.985 141.614 168.15 142.022 168.15 142.447C168.15 142.872 167.985 143.28 167.689 143.585C167.394 143.89 166.991 144.068 166.567 144.081Z" fill="#9EC8FF"/>
        <path opacity="0.7" d="M166.567 159.17H76.6952C76.2619 159.17 75.8464 158.998 75.54 158.692C75.2336 158.385 75.0615 157.97 75.0615 157.536C75.0615 157.103 75.2336 156.688 75.54 156.381C75.8464 156.075 76.2619 155.903 76.6952 155.903H166.567C167.001 155.903 167.416 156.075 167.723 156.381C168.029 156.688 168.201 157.103 168.201 157.536C168.201 157.97 168.029 158.385 167.723 158.692C167.416 158.998 167.001 159.17 166.567 159.17Z" fill="#9EC8FF"/>
        <path opacity="0.7" d="M166.567 165.026H76.6947C76.4756 165.033 76.2574 164.996 76.0529 164.917C75.8485 164.838 75.662 164.719 75.5045 164.567C75.3471 164.414 75.2219 164.231 75.1364 164.03C75.0509 163.828 75.0068 163.611 75.0068 163.392C75.0068 163.173 75.0509 162.956 75.1364 162.754C75.2219 162.552 75.3471 162.369 75.5045 162.217C75.662 162.064 75.8485 161.945 76.0529 161.866C76.2574 161.787 76.4756 161.75 76.6947 161.757H166.567C166.991 161.771 167.394 161.949 167.689 162.254C167.985 162.559 168.15 162.967 168.15 163.392C168.15 163.816 167.985 164.224 167.689 164.529C167.394 164.834 166.991 165.013 166.567 165.026Z" fill="#9EC8FF"/>
        <path opacity="0.7" d="M194.419 194.395H104.545C104.112 194.395 103.696 194.223 103.39 193.917C103.083 193.61 102.911 193.195 102.911 192.762C102.911 192.328 103.083 191.913 103.39 191.606C103.696 191.3 104.112 191.128 104.545 191.128H194.419C194.852 191.128 195.268 191.3 195.574 191.606C195.88 191.913 196.052 192.328 196.052 192.762C196.052 193.195 195.88 193.61 195.574 193.917C195.268 194.223 194.852 194.395 194.419 194.395Z" fill="#9EC8FF"/>
        <path opacity="0.7" d="M194.419 202.555H104.545C104.112 202.555 103.696 202.383 103.39 202.077C103.083 201.771 102.911 201.355 102.911 200.922C102.911 200.488 103.083 200.073 103.39 199.767C103.696 199.46 104.112 199.288 104.545 199.288H194.419C194.852 199.288 195.268 199.46 195.574 199.767C195.88 200.073 196.052 200.488 196.052 200.922C196.052 201.355 195.88 201.771 195.574 202.077C195.268 202.383 194.852 202.555 194.419 202.555Z" fill="#9EC8FF"/>
        <g opacity="0.8">
            <path opacity="0.8" d="M181.936 96.636H176.715C175.624 96.6347 174.577 96.2006 173.806 95.4289C173.034 94.6573 172.6 93.6111 172.599 92.5198V87.2988C172.6 86.2075 173.034 85.1613 173.806 84.3897C174.577 83.6181 175.624 83.184 176.715 83.1826H181.936C183.027 83.184 184.073 83.6181 184.844 84.3898C185.616 85.1615 186.049 86.2077 186.05 87.2988V92.5198C186.049 93.6109 185.616 94.6571 184.844 95.4288C184.073 96.2005 183.027 96.6347 181.936 96.636ZM176.715 85.5405C176.249 85.5409 175.802 85.7263 175.472 86.056C175.142 86.3856 174.957 86.8326 174.957 87.2988V92.5198C174.957 92.986 175.142 93.433 175.472 93.7626C175.802 94.0923 176.249 94.2777 176.715 94.2781H181.936C182.402 94.2772 182.848 94.0916 183.178 93.762C183.507 93.4324 183.692 92.9857 183.692 92.5198V87.2988C183.692 86.8329 183.507 86.3862 183.178 86.0566C182.848 85.727 182.402 85.5414 181.936 85.5405H176.715Z" fill="#9EC8FF"/>
        </g>
        <g opacity="0.8">
            <path opacity="0.8" d="M181.936 118.829H176.715C175.624 118.827 174.578 118.393 173.806 117.621C173.035 116.85 172.6 115.804 172.599 114.713V109.492C172.6 108.401 173.035 107.355 173.806 106.583C174.578 105.812 175.624 105.377 176.715 105.375H181.936C183.027 105.377 184.073 105.812 184.844 106.583C185.615 107.355 186.049 108.401 186.05 109.492V114.713C186.049 115.804 185.615 116.85 184.844 117.621C184.073 118.393 183.027 118.827 181.936 118.829ZM176.715 107.732C176.249 107.733 175.802 107.918 175.472 108.248C175.143 108.577 174.957 109.024 174.957 109.49V114.711C174.957 115.177 175.143 115.624 175.472 115.953C175.802 116.283 176.249 116.468 176.715 116.469H181.936C182.402 116.468 182.848 116.283 183.178 115.953C183.507 115.624 183.692 115.177 183.692 114.711V109.49C183.692 109.024 183.507 108.577 183.178 108.248C182.848 107.918 182.402 107.733 181.936 107.732H176.715Z" fill="#9EC8FF"/>
        </g>
        <path d="M179.65 93.5303H179.602C179.455 93.5232 179.312 93.4843 179.182 93.4162C179.052 93.3482 178.938 93.2526 178.849 93.1362L175.096 88.2402C175.012 88.1353 174.949 88.0145 174.912 87.885C174.875 87.7555 174.864 87.6199 174.88 87.4862C174.896 87.3524 174.939 87.2233 175.006 87.1062C175.072 86.9892 175.162 86.8867 175.269 86.8047C175.376 86.7228 175.498 86.663 175.628 86.6289C175.758 86.5949 175.894 86.5872 176.028 86.6064C176.161 86.6256 176.289 86.6713 176.404 86.7407C176.52 86.8101 176.62 86.902 176.7 87.0107L179.731 90.9602L188.055 82.0339C188.144 81.9316 188.252 81.8482 188.374 81.7887C188.496 81.7293 188.629 81.695 188.764 81.6879C188.9 81.6808 189.035 81.7011 189.163 81.7475C189.29 81.7939 189.407 81.8655 189.506 81.9581C189.606 82.0506 189.685 82.1622 189.74 82.2861C189.795 82.4101 189.825 82.5438 189.827 82.6795C189.83 82.8151 189.805 82.9499 189.754 83.0756C189.703 83.2014 189.628 83.3157 189.532 83.4116L180.395 93.2019C180.3 93.3052 180.185 93.3878 180.057 93.4443C179.929 93.5008 179.79 93.5301 179.65 93.5303Z" fill="#F37168"/>
        <path d="M179.65 115.723H179.602C179.455 115.716 179.312 115.677 179.182 115.609C179.052 115.541 178.938 115.445 178.849 115.329L175.096 110.433C175.012 110.328 174.949 110.207 174.912 110.078C174.875 109.948 174.864 109.812 174.88 109.679C174.896 109.545 174.939 109.416 175.006 109.299C175.072 109.182 175.162 109.079 175.269 108.997C175.376 108.915 175.498 108.855 175.628 108.821C175.758 108.787 175.894 108.78 176.028 108.799C176.161 108.818 176.289 108.864 176.404 108.933C176.52 109.003 176.62 109.094 176.7 109.203L179.731 113.151L188.055 104.225C188.145 104.126 188.254 104.047 188.375 103.991C188.496 103.935 188.627 103.903 188.76 103.898C188.894 103.893 189.027 103.914 189.152 103.961C189.277 104.007 189.391 104.078 189.489 104.169C189.586 104.261 189.665 104.37 189.72 104.492C189.775 104.613 189.805 104.744 189.809 104.878C189.813 105.011 189.791 105.144 189.743 105.269C189.695 105.393 189.624 105.507 189.532 105.604L180.395 115.394C180.3 115.498 180.185 115.58 180.057 115.637C179.929 115.693 179.79 115.723 179.65 115.723Z" fill="#F37168"/>
        <path d="M181.935 144.971H176.714C175.668 144.97 174.664 144.553 173.924 143.813C173.184 143.073 172.768 142.07 172.767 141.023V135.802C172.768 134.756 173.184 133.752 173.924 133.012C174.664 132.272 175.668 131.856 176.714 131.854H181.935C182.982 131.856 183.985 132.272 184.725 133.012C185.465 133.752 185.881 134.756 185.881 135.802V141.023C185.881 142.07 185.465 143.073 184.725 143.813C183.985 144.553 182.982 144.97 181.935 144.971ZM176.714 133.876C176.203 133.876 175.714 134.079 175.352 134.44C174.991 134.802 174.788 135.291 174.788 135.802V141.023C174.788 141.534 174.991 142.024 175.352 142.385C175.714 142.746 176.203 142.95 176.714 142.95H181.935C182.446 142.949 182.935 142.746 183.296 142.385C183.657 142.023 183.86 141.534 183.86 141.023V135.802C183.86 135.292 183.657 134.802 183.296 134.441C182.935 134.08 182.446 133.876 181.935 133.876H176.714Z" fill="#9EC8FF"/>
        <g opacity="0.8">
            <path opacity="0.8" d="M181.936 167.332H176.715C175.624 167.33 174.578 166.896 173.806 166.124C173.035 165.353 172.6 164.307 172.599 163.216V157.995C172.6 156.903 173.035 155.858 173.806 155.086C174.578 154.314 175.624 153.88 176.715 153.878H181.936C183.027 153.88 184.073 154.315 184.844 155.086C185.615 155.858 186.049 156.904 186.05 157.995V163.216C186.049 164.307 185.615 165.353 184.844 166.124C184.073 166.896 183.027 167.33 181.936 167.332ZM176.715 156.235C176.249 156.236 175.802 156.421 175.472 156.751C175.143 157.08 174.957 157.527 174.957 157.993V163.214C174.957 163.68 175.143 164.127 175.472 164.456C175.802 164.786 176.249 164.971 176.715 164.972H181.936C182.402 164.971 182.848 164.786 183.178 164.456C183.507 164.127 183.692 163.68 183.692 163.214V157.993C183.692 157.527 183.507 157.08 183.178 156.751C182.848 156.421 182.402 156.236 181.936 156.235H176.715Z" fill="#9EC8FF"/>
        </g>
        <path d="M179.65 142.034H179.602C179.455 142.026 179.312 141.988 179.182 141.919C179.052 141.851 178.938 141.756 178.849 141.639L175.096 136.743C175.012 136.639 174.949 136.518 174.912 136.388C174.875 136.259 174.864 136.123 174.88 135.989C174.896 135.856 174.939 135.727 175.006 135.61C175.072 135.492 175.162 135.39 175.269 135.308C175.376 135.226 175.498 135.166 175.628 135.132C175.758 135.098 175.894 135.091 176.028 135.11C176.161 135.129 176.289 135.175 176.404 135.244C176.52 135.313 176.62 135.405 176.7 135.514L179.731 139.463L188.055 130.546C188.144 130.443 188.252 130.36 188.374 130.3C188.496 130.241 188.629 130.207 188.764 130.2C188.9 130.193 189.035 130.213 189.163 130.259C189.29 130.306 189.407 130.377 189.506 130.47C189.606 130.562 189.685 130.674 189.74 130.798C189.795 130.922 189.825 131.056 189.827 131.191C189.83 131.327 189.805 131.462 189.754 131.587C189.703 131.713 189.628 131.827 189.532 131.923L180.395 141.714C180.3 141.815 180.184 141.896 180.056 141.951C179.928 142.007 179.79 142.034 179.65 142.034Z" fill="#F37168"/>
        <path d="M179.65 164.226H179.602C179.455 164.219 179.312 164.18 179.182 164.112C179.052 164.044 178.938 163.949 178.849 163.832L175.096 158.936C175.012 158.831 174.949 158.71 174.912 158.581C174.875 158.451 174.864 158.316 174.88 158.182C174.896 158.048 174.939 157.919 175.006 157.802C175.072 157.685 175.162 157.583 175.269 157.501C175.376 157.419 175.498 157.359 175.628 157.325C175.758 157.291 175.894 157.283 176.028 157.302C176.161 157.322 176.289 157.367 176.404 157.437C176.52 157.506 176.62 157.598 176.7 157.707L179.731 161.654L188.055 152.728C188.145 152.63 188.254 152.55 188.375 152.494C188.496 152.438 188.627 152.407 188.76 152.402C188.894 152.396 189.027 152.418 189.152 152.464C189.277 152.511 189.391 152.582 189.489 152.673C189.586 152.764 189.665 152.873 189.72 152.995C189.775 153.117 189.805 153.248 189.809 153.381C189.813 153.515 189.791 153.648 189.743 153.772C189.695 153.897 189.624 154.011 189.532 154.108L180.395 163.898C180.3 164.001 180.185 164.084 180.057 164.14C179.929 164.197 179.79 164.226 179.65 164.226Z" fill="#F37168"/>
        <path d="M152.161 30.5903H113.133C108.878 30.5903 104.797 28.9 101.788 25.8912C98.7792 22.8824 97.0889 18.8016 97.0889 14.5466C97.0893 13.6392 97.4501 12.7692 98.0918 12.1277C98.7336 11.4863 99.6038 11.126 100.511 11.126H164.782C165.689 11.126 166.559 11.4864 167.201 12.1278C167.842 12.7693 168.203 13.6394 168.203 14.5466C168.203 18.8013 166.512 22.8819 163.504 25.8906C160.496 28.8993 156.415 30.5898 152.161 30.5903Z" fill="#93B1C2"/>
        <path d="M102.928 12.3434H164.333C164.945 12.3439 165.533 12.5871 165.967 13.0199C166.4 13.4527 166.645 14.0397 166.647 14.6525V14.7552C166.647 16.1814 166.367 17.5938 165.822 18.9117C165.276 20.2295 164.476 21.427 163.468 22.4357C162.46 23.4443 161.263 24.2444 159.945 24.7902C158.627 25.336 157.215 25.6168 155.789 25.6166H111.471C108.591 25.6166 105.83 24.4728 103.794 22.4369C101.758 20.4009 100.614 17.6395 100.614 14.7603V14.6525C100.614 14.0387 100.858 13.4501 101.292 13.0162C101.726 12.5822 102.315 12.3384 102.928 12.3384V12.3434Z" fill="#D6E7F0"/>
        <path opacity="0.7" d="M194.879 33.8306H70.4131V56.1327H194.879V33.8306Z" fill="#9EC8FF"/>
        <path d="M93.4727 39.7622V50.6842H90.9902V39.7622H93.4727Z" fill="white"/>
        <path d="M95.6084 50.6845V39.7624H98.4934L100.76 43.7658C101.436 44.973 102.032 46.2231 102.544 47.5081H102.593C102.437 45.9975 102.367 44.4793 102.382 42.9607V39.7607H104.649V50.6828H102.062L99.7296 46.4723C99.0279 45.2196 98.3932 43.9305 97.8282 42.6104L97.7793 42.6256C97.845 44.0672 97.877 45.6066 97.877 47.3902V50.6794L95.6084 50.6845Z" fill="white"/>
        <path d="M106.87 48.1397C107.72 48.5684 108.656 48.7987 109.608 48.8133C110.741 48.8133 111.341 48.3434 111.341 47.6344C111.341 46.9607 110.822 46.5649 109.51 46.095C107.696 45.4635 106.512 44.458 106.512 42.8715C106.512 41.0071 108.069 39.5822 110.645 39.5822C111.603 39.5642 112.553 39.752 113.431 40.133L112.88 42.1254C112.169 41.7807 111.387 41.6033 110.597 41.6066C109.527 41.6066 109.008 42.0934 109.008 42.661C109.008 43.3565 109.623 43.6715 111.029 44.1986C112.958 44.9127 113.866 45.9165 113.866 47.4559C113.866 49.2866 112.456 50.8428 109.458 50.8428C108.21 50.8428 106.979 50.5194 106.364 50.1775L106.87 48.1397Z" fill="white"/>
        <path d="M118 39.7622V46.0493C118 47.9289 118.712 48.8855 119.977 48.8855C121.272 48.8855 121.986 47.9777 121.986 46.0493V39.7622H124.449V45.8876C124.449 49.256 122.748 50.8628 119.901 50.8628C117.146 50.8628 115.522 49.3386 115.522 45.8556V39.7622H118Z" fill="white"/>
        <path d="M126.588 39.9154C127.677 39.7562 128.777 39.6802 129.877 39.6881C131.497 39.6881 132.631 39.9323 133.414 40.547C134.062 41.0657 134.424 41.827 134.424 42.8325C134.424 44.2253 133.436 45.1903 132.496 45.5272V45.576C133.259 45.8825 133.675 46.6118 133.955 47.6173C134.291 48.8484 134.628 50.2749 134.846 50.696H132.319C132.141 50.3878 131.881 49.4968 131.556 48.1512C131.265 46.7903 130.795 46.4181 129.791 46.4013H129.045V50.696H126.588V39.9154ZM129.033 44.6143H130.007C131.238 44.6143 131.967 43.9979 131.967 43.043C131.967 42.0325 131.294 41.5356 130.152 41.5188C129.777 41.5113 129.403 41.5389 129.033 41.6013V44.6143Z" fill="white"/>
        <path d="M138.884 47.88L138.104 50.6842H135.544L138.882 39.7622H142.122L145.514 50.6842H142.853L142.011 47.88H138.884ZM141.654 46.0274L140.981 43.71C140.787 43.0616 140.591 42.2515 140.43 41.603H140.398C140.229 42.2515 140.073 43.0784 139.893 43.71L139.246 46.0274H141.654Z" fill="white"/>
        <path d="M146.969 50.6845V39.7624H149.854L152.122 43.7658C152.797 44.973 153.393 46.2231 153.904 47.5081H153.953C153.798 45.9974 153.728 44.4792 153.743 42.9607V39.7607H156.011V50.6828H153.418L151.085 46.4723C150.385 45.2194 149.752 43.9303 149.189 42.6104L149.14 42.6256C149.205 44.0672 149.237 45.6066 149.237 47.3902V50.6794L146.969 50.6845Z" fill="white"/>
        <path d="M166.168 50.3761C165.715 50.6035 164.695 50.846 163.366 50.846C159.59 50.846 157.64 48.4965 157.64 45.3858C157.64 41.6587 160.297 39.5854 163.602 39.5854C164.882 39.5854 165.853 39.8448 166.296 40.0705L165.791 42.0309C165.134 41.7594 164.429 41.6219 163.718 41.6267C161.756 41.6267 160.233 42.8056 160.233 45.2393C160.233 47.4288 161.53 48.8048 163.733 48.8048C164.434 48.804 165.131 48.6833 165.791 48.4477L166.168 50.3761Z" fill="white"/>
        <path d="M174.286 46.0662H170.272V48.6581H174.761V50.6792H167.788V39.7622H174.525V41.7832H170.272V44.0519H174.291L174.286 46.0662Z" fill="white"/>
        <path d="M162.638 14.1675H132.461C131.565 14.1675 130.839 14.8936 130.839 15.7894V16.1953C130.839 17.091 131.565 17.8171 132.461 17.8171H162.638C163.534 17.8171 164.26 17.091 164.26 16.1953V15.7894C164.26 14.8936 163.534 14.1675 162.638 14.1675Z" fill="#F2F2F2"/>
        <path opacity="0.5" d="M257.814 230.818C211.733 221.337 173.466 225.622 160.22 224.815C146.973 224.008 70.1942 223.187 53.9737 228.734C37.7532 234.282 65.3572 241.849 97.3789 238.334C129.401 234.819 149.096 235.532 200.076 239.23C251.057 242.929 264.113 232.114 257.814 230.818Z" fill="#BDCCD4"/>
        <path d="M99.6258 93.1108C106.543 98.1062 121.402 100.284 126.147 100.547C130.891 100.809 123.516 113.869 123.516 113.869C123.516 113.869 110.775 115.406 104.754 113.869C98.7332 112.331 99.6258 93.1108 99.6258 93.1108Z" fill="#D54A41"/>
        <path d="M87.7547 222.659C87.8389 226.075 89.7859 228.108 92.964 230.474C96.2936 232.953 96.4654 233.226 91.8524 233.842C87.2394 234.459 85.9577 232.36 82.8857 231.464C79.8137 230.568 81.7758 228.389 81.6057 226.339C81.4356 224.29 81.1426 220.96 81.1426 220.96L87.7547 222.659Z" fill="#303C60"/>
        <path d="M114.655 220.952C116.145 222.631 117.742 224.211 119.437 225.683C122.17 228.04 129.087 228.844 125.758 229.725C122.428 230.605 118.696 230.129 115.267 230.622C111.838 231.116 108.848 230.637 108.592 229.725C108.336 228.812 108.592 222.314 108.592 222.314L114.655 220.952Z" fill="#303C60"/>
        <path d="M124.094 71.4994C128.38 67.4287 136.26 72.6177 137.003 76.0669C138.915 84.941 139.76 94.1165 137.434 97.7224C135.108 101.328 114.396 103.595 114.649 102.315C114.901 101.035 114.96 93.0706 118.391 89.1784C121.822 85.2863 120.262 81.5204 120.89 77.9229C121.647 73.5996 123.407 72.1512 124.094 71.4994Z" fill="#58556E"/>
        <path d="M115.24 97.4375C113.78 107.777 112.377 127.248 108.145 131.987C103.912 136.726 101.558 148.031 101.558 148.031C101.558 148.031 115.22 140.57 120.811 122.227C122.565 116.474 118.285 103.037 117.248 101.757C116.21 100.477 115.24 97.4375 115.24 97.4375Z" fill="#7EC1D6"/>
        <path d="M144.841 125.84C143.999 126.864 141.736 131.832 140.589 131.832C136.681 131.832 136.393 133.363 134.273 134.487C131.551 135.927 132.127 138.136 132.321 138.264C132.515 138.392 138.305 137.378 140.248 136.112C141.864 135.059 143.011 134.487 143.797 133.333C144.584 132.179 149.052 128.85 149.052 128.85L144.841 125.84Z" fill="#F09959"/>
        <path d="M140.89 95.1572C144.843 97.5437 145.569 99.7652 149.454 106.51C153.34 113.256 154.024 115.691 155.561 118.131C157.099 120.572 157.611 123.384 154.366 126.458C151.265 129.395 149.818 130.594 148.117 130.135C146.972 129.825 146.066 126.487 144.473 127.091C142.879 127.696 145.697 123 147.149 121.677C147.94 120.956 148.259 121.003 148.003 120.681C147.747 120.36 142.879 116.723 138.822 111.47C134.765 106.217 140.89 95.1572 140.89 95.1572Z" fill="#9BD6E8"/>
        <path d="M153.298 120.395C151.374 119.531 148.971 119.656 147.206 119.989C147.659 120.372 147.945 120.609 148.003 120.681C148.259 121.018 147.94 120.956 147.149 121.677C146.802 122.01 146.484 122.372 146.197 122.758C147.545 122.046 149.017 121.411 150.224 121.229C153.298 120.779 153.49 121.613 155.092 122.637C156.693 123.661 156.436 121.805 153.298 120.395Z" fill="#7EC1D6"/>
        <path d="M144.864 98.7379C143.807 97.2912 142.675 96.2436 140.89 95.1641C140.89 95.1641 134.766 106.219 138.821 111.47C140.04 113.036 141.355 114.525 142.757 115.929C142.84 112.39 143.212 104.479 144.864 98.7379Z" fill="#7EC1D6"/>
        <path d="M125.848 91.5094C120.555 92.7051 116.282 94.2664 115.189 97.3384C114.659 98.8289 117.729 123.427 120.804 126.16C126.738 131.433 136.516 126.497 136.516 126.497C136.516 126.497 140.957 115.437 142.719 96.8719C143.177 95.1978 132.589 91.9102 130.881 91.5683C129.173 91.2264 125.848 91.5094 125.848 91.5094Z" fill="#9BD6E8"/>
        <path d="M127.632 221.996C127.632 221.996 120.377 232.039 124.732 231.683C129.087 231.328 131.932 226.845 131.932 226.845C131.932 226.845 133.448 231.927 137.798 231.692C142.148 231.456 139.696 228.791 137.798 225.682C136.709 223.851 136.064 221.789 135.915 219.663L127.632 221.996Z" fill="#F09959"/>
        <path d="M128.255 96.3124C127.389 96.3102 126.56 95.9655 125.947 95.3536C125.335 94.7417 124.99 93.9124 124.987 93.0468V80.8768C125.007 80.0233 125.359 79.2113 125.97 78.6145C126.58 78.0177 127.4 77.6836 128.254 77.6836C129.108 77.6836 129.927 78.0177 130.538 78.6145C131.148 79.2113 131.501 80.0233 131.52 80.8768V93.0468C131.518 93.9121 131.173 94.7412 130.561 95.353C129.949 95.9649 129.12 96.3098 128.255 96.3124Z" fill="#F09959"/>
        <path d="M128.255 77.6113C127.389 77.6135 126.56 77.9583 125.947 78.5702C125.335 79.1821 124.99 80.0114 124.987 80.877V86.386C126.694 88.8525 128.925 90.9109 131.52 92.4138V80.877C131.518 80.0117 131.173 79.1826 130.561 78.5708C129.949 77.9589 129.12 77.614 128.255 77.6113Z" fill="#E38540"/>
        <path d="M136.571 79.2465C137.592 83.5985 135.854 87.7298 132.688 88.4725C129.521 89.2153 126.119 86.2831 125.109 81.9345C124.098 77.5859 125.826 73.4512 128.992 72.7084C132.159 71.9657 135.551 74.8928 136.571 79.2465Z" fill="#F09959"/>
        <path d="M121.538 124.695C121.538 124.695 111.356 132.378 114.621 157.55C117.887 182.722 121.346 181.951 121.538 194.057C121.73 206.163 126.918 222.877 129.993 226.142C133.068 229.408 140.615 211.899 140.615 196.357C140.615 187.276 140.615 182.912 142.734 168.694C144.853 154.476 144.403 133.725 135.948 124.695C127.494 115.664 121.538 124.695 121.538 124.695Z" fill="#F09959"/>
        <path d="M129.786 180.984C129.778 175.029 127.805 162.368 128.255 144.87L115.267 162.188C118.327 182.682 121.358 182.754 121.539 194.065C121.683 203.237 124.698 215.055 127.487 221.664C129.299 222.314 130.519 223.079 130.839 224.037C131.27 225.322 131.556 226.033 131.728 226.24C131.789 226.2 131.849 226.157 131.912 226.11C132.061 225.037 131.283 219.567 130.433 211.609C128.993 198.146 129.794 186.946 129.786 180.984Z" fill="#E38540"/>
        <path d="M116.962 115.705C118.657 125.657 117.636 127.001 115.266 135.263C112.897 143.526 112.861 165.429 112.861 165.429C112.861 165.429 119.297 168.124 131.753 166.965C144.209 165.806 145.939 164.467 145.939 164.467C145.939 164.467 144.523 143.14 142.739 136.799C140.955 130.458 138.15 126.123 138.013 122.047C137.877 117.972 116.962 115.705 116.962 115.705Z" fill="#9BD6E8"/>
        <path d="M124.732 231.683C129.087 231.328 131.932 226.845 131.932 226.845C131.932 226.845 133.448 231.927 137.798 231.692C141.538 231.49 140.255 229.502 138.615 226.976C138.465 227.543 138.002 228.076 136.774 228.027C134.2 227.927 131.784 224.803 131.784 224.803C131.784 224.803 127.294 228.261 125.628 228.015C123.962 227.769 126.438 223.764 126.441 223.761C124.587 226.614 121.539 231.943 124.732 231.683Z" fill="#3E6BAB"/>
        <path d="M150.185 173.04C149.679 178.805 150.207 183.16 149.174 187.899C148.142 192.639 145.959 194.176 145.959 194.176L144.039 172.016L150.185 173.04Z" fill="#F09959"/>
        <path d="M135.838 148.701C131.696 139.926 131.29 137.045 133.66 134.995C136.03 132.945 136.415 130.128 140.321 131.152C144.227 132.176 145.51 134.419 147.432 135.251C149.353 136.083 148.968 141.272 146.534 142.682C144.1 144.091 135.838 148.701 135.838 148.701Z" fill="#7A4E34"/>
        <path d="M132.689 225.204C132.689 225.204 132.521 227.865 133.255 229.063C133.989 230.26 134.537 230.806 131.758 230.861C128.979 230.917 128.221 230.206 128 228.519C127.78 226.831 127.81 226.329 128.204 225.295C128.598 224.261 132.689 225.204 132.689 225.204Z" fill="#63ACC2"/>
        <path d="M147.109 225.624C147.109 225.624 150.249 228.443 152.106 229.083C153.964 229.723 151.358 231.133 148.078 230.43C144.797 229.728 145.061 230.686 143.396 229.925C141.73 229.164 143.256 225.068 143.256 225.068L147.109 225.624Z" fill="#63ACC2"/>
        <path d="M147.495 181.494C147.495 181.494 147.495 202.884 147.751 211.214C148.007 219.544 148.179 225.176 148.013 226.102C147.943 226.491 144.415 225.972 142.877 226.102C141.34 226.232 138.086 206.986 136.735 196.61C135.384 186.234 134.813 178.677 134.813 178.677L147.495 181.494Z" fill="#3E6BAB"/>
        <path d="M136.735 196.61C137.37 201.494 138.419 208.344 139.531 214.212C141.047 207.522 144.034 195.638 147.509 188.767C147.495 184.534 147.495 181.494 147.495 181.494L139.532 179.726L134.972 180.568C135.224 183.445 135.787 189.334 136.735 196.61Z" fill="#2E5B9A"/>
        <path d="M129.305 176.883C128.665 187.387 127.671 211.606 128.009 216.977C128.375 222.806 127.641 225.048 127.641 225.048C127.641 225.048 129.049 225.553 131.346 225.816L132.809 225.984C132.809 225.984 138.649 210.579 139.801 199.946C140.953 189.314 144.028 180.987 144.028 180.987L129.305 176.883Z" fill="#3E6BAB"/>
        <path d="M145.995 154.598C150.953 161.255 151.467 174.315 151.467 174.315C151.467 174.315 149.446 175.852 147.509 175.083C145.572 174.313 145.995 154.598 145.995 154.598Z" fill="#EDC055"/>
        <path d="M140.706 151.072C146.601 152.42 149.031 159.209 149.159 164.59C149.287 169.971 148.263 184.445 148.263 184.957C148.263 185.469 136.735 186.495 132.508 185.597L128.28 184.701C128.28 184.701 127.127 163.312 128.28 158.057C129.434 152.802 136.991 150.37 136.991 150.37L140.706 151.072Z" fill="#F5CE5C"/>
        <path d="M138.661 165.614C138.341 163.66 140.955 163.34 142.114 163.5C143.273 163.66 143.549 164.94 144.036 165.1C144.522 165.26 145.194 164.512 145.804 164.952C146.414 165.392 145.708 166.636 144.938 166.702C144.169 166.768 143.722 166.008 143.177 166.355C142.631 166.702 142.857 166.926 142.761 166.926C142.665 166.926 140.74 167.15 140.74 167.15C140.74 167.15 139.908 166.606 139.332 166.67C138.756 166.734 138.973 167.344 138.973 167.344C138.973 167.344 138.018 167.278 138.242 166.606C138.349 166.262 138.489 165.93 138.661 165.614Z" fill="#EDC055"/>
        <path d="M143.017 166.926C143.601 166.278 144.196 166.894 144.458 167.118C144.721 167.342 144.005 167.792 143.434 167.792C142.863 167.792 143.017 166.926 143.017 166.926Z" fill="#EDC055"/>
        <path d="M139.239 167.344C139.175 166.862 140.135 166.958 140.418 167.344C140.701 167.73 139.778 168.112 139.49 168.018C139.202 167.923 139.239 167.344 139.239 167.344Z" fill="#EDC055"/>
        <path d="M137.638 167.792C137.574 167.6 135.111 166.574 135.396 165.646C135.681 164.718 137.318 166.719 137.318 166.719C137.318 166.719 136.196 164.268 136.774 164.076C137.351 163.884 137.574 165.614 137.638 166.126C137.671 166.681 137.671 167.237 137.638 167.792Z" fill="#EDC055"/>
        <path d="M144.513 163.661C144.513 163.661 144.681 161.579 145.387 161.995C146.092 162.411 144.951 163.661 144.951 163.661C144.951 163.661 146.412 162.507 146.764 163.155C147.116 163.804 144.513 164.068 144.513 164.068V163.661Z" fill="#EDC055"/>
        <path d="M133.282 176.883C133.801 170.35 135.197 161.255 131.226 154.722L130.163 154.598C129.276 155.573 128.572 156.721 128.28 158.054C127.127 163.305 128.28 184.698 128.28 184.698L132.508 185.594C132.7 185.634 132.907 185.671 133.127 185.705C132.991 182.764 133.042 179.817 133.282 176.883Z" fill="#EDC055"/>
        <path d="M138.976 154.722C138.143 154.72 137.345 154.388 136.757 153.799C136.169 153.209 135.838 152.411 135.837 151.578V145.82C135.856 145 136.195 144.22 136.781 143.647C137.368 143.074 138.155 142.753 138.975 142.753C139.795 142.753 140.583 143.074 141.169 143.647C141.756 144.22 142.095 145 142.114 145.82V151.578C142.569 154.598 140.999 154.982 138.976 154.722Z" fill="#F09959"/>
        <path d="M142.114 151.837V144.218C142.114 143.811 141.951 143.421 141.664 143.133C141.376 142.845 140.986 142.683 140.578 142.682H137.378C136.971 142.683 136.581 142.845 136.293 143.133C136.005 143.421 135.842 143.811 135.841 144.218V149.102C138.327 151.357 140.597 151.844 142.114 151.837Z" fill="#E38540"/>
        <path d="M147.123 141.89C147.694 146.013 145.607 149.712 142.448 150.143C139.288 150.574 136.274 147.591 135.711 143.467C135.148 139.342 137.227 135.647 140.386 135.214C143.546 134.781 146.552 137.767 147.123 141.89Z" fill="#FCA96A"/>
        <path d="M130.053 154.722C124.309 157.284 123.797 175.859 123.541 178.677C123.285 181.494 124.693 191.103 125.463 193.666C126.233 196.229 128.405 198.259 128.52 195.069C128.634 191.879 127.769 190.207 127.769 190.207C127.769 190.207 128.921 192.64 129.305 191.36C129.689 190.08 127.641 188.16 127.641 187.005C127.641 185.849 129.305 179.062 129.305 176.885C129.305 174.707 132.505 167.662 132.505 161.895C132.505 156.128 130.053 154.722 130.053 154.722Z" fill="#FCA96A"/>
        <path d="M131.99 152.969C126.742 155.106 125.144 161.255 123.51 167.148L121.875 173.043C121.875 173.043 130.464 176.075 130.97 175.716C131.475 175.357 133.403 164.718 133.275 160.363C133.147 156.008 131.99 152.969 131.99 152.969Z" fill="#F5CE5C"/>
        <path d="M136.87 143.578C137.257 144.588 137.011 145.633 136.324 145.894C135.637 146.155 134.764 145.542 134.377 144.524C133.99 143.507 134.235 142.47 134.924 142.209C135.613 141.948 136.484 142.561 136.87 143.578Z" fill="#FCA96A"/>
        <path d="M135.133 141.336C135.133 141.336 136.728 146.281 137.052 144.48C137.375 142.68 136.863 141.848 138.079 141.336C139.295 140.824 137.695 137.365 139.426 137.685C141.158 138.005 142.564 140.095 145.191 139.595C147.819 139.094 148.897 138.518 147.817 137.045C146.737 135.571 137.767 134.163 137.767 134.163L133.956 138.529L135.133 141.336Z" fill="#7A4E34"/>
        <path d="M143.396 230.429C145.062 231.197 144.799 230.237 148.078 230.934C151.357 231.631 154.363 229.909 152.506 229.269L152.371 229.22C151.855 229.488 151.366 229.805 150.911 230.166C150.483 230.503 149.373 230.25 147.846 229.998C146.318 229.745 146.584 230.183 146.214 229.784C145.843 229.385 144.342 228.339 142.63 228.335C142.569 229.252 142.717 230.116 143.396 230.429Z" fill="#2E5B9A"/>
        <path d="M127.864 226.249C129.23 229.033 128.579 229.529 129.732 229.723C130.886 229.917 131.275 229.016 132.508 229.445C133.741 229.875 133.571 229.873 133.855 230.215C134.14 230.557 134.007 230.973 133.495 231.106C132.983 231.239 130.335 231.274 129.31 231.106C128.284 230.937 127.602 229.024 127.646 228.339C127.689 227.653 127.864 226.249 127.864 226.249Z" fill="#2E5B9A"/>
        <path d="M94.4431 84.9192C92.422 82.078 90.3875 74.3441 92.1947 73.5526C94.0018 72.761 93.542 71.5214 95.3559 69.2056C97.1698 66.8899 104.451 65.9888 106.59 69.8793C108.728 73.7698 109.655 74.169 109.731 76.2574C109.806 78.3458 104.678 83.5399 104.678 83.5399L94.4431 84.9192Z" fill="#58556E"/>
        <path d="M142.16 130.292C141.571 131.176 141.007 131.833 140.591 131.833C136.683 131.833 136.395 133.363 134.275 134.487C131.553 135.927 132.129 138.136 132.323 138.264C132.517 138.392 138.307 137.379 140.25 136.112C141.866 135.059 143.012 134.487 143.799 133.333C144.037 133.022 144.304 132.733 144.597 132.473C143.72 131.822 142.904 131.092 142.16 130.292Z" fill="#F09959"/>
        <path d="M95.7825 74.9199C95.7825 74.9199 94.5009 90.6908 91.6832 92.4137C88.8655 94.1366 83.4845 100.547 84.2542 114.374C85.0239 128.201 86.0462 134.177 87.0736 139.519C88.1009 144.861 107.313 141.606 109.362 139.519C111.412 137.432 113.718 118.345 109.362 108.675C105.007 99.004 100.14 93.5371 99.6276 91.1455C99.1156 88.7539 102.445 79.1473 102.445 79.1473L95.7825 74.9199Z" fill="#F09959"/>
        <path d="M99.573 90.6284C99.5073 87.6137 102.436 79.1473 102.436 79.1473L95.7751 74.9199C95.7751 74.9199 95.4955 78.3591 94.9111 82.199C95.7819 87.5379 97.5149 89.5876 99.573 90.6284Z" fill="#E38540"/>
        <path d="M107.943 79.3513C108.585 83.9828 106.99 87.6038 103.654 88.072C100.317 88.5402 96.5043 85.6569 95.8643 81.0237C95.2243 76.3904 97.407 72.2658 100.748 71.7993C104.09 71.3328 107.302 74.718 107.943 79.3513Z" fill="#F09959"/>
        <path d="M144.513 97.082C146.475 98.2997 147.969 101.351 147.11 103.827C146.251 106.303 145.062 103.127 143.755 101.301C142.448 99.4753 143.046 96.1675 144.513 97.082Z" fill="#F09959"/>
        <path d="M109.626 130.231C108.279 146.399 112.826 182.912 112.862 191.173C112.897 199.434 116.193 222.028 116.193 222.028C116.193 222.028 110.812 223.574 108.698 223.752C106.585 223.931 100.481 203.283 99.5783 192.335C98.6755 181.388 92.9678 161.939 92.9678 161.939L94.9248 128.592L109.626 130.231Z" fill="#3E6BAB"/>
        <path d="M109.626 130.231L94.9181 128.595L92.9678 161.939C92.9678 161.939 98.6806 181.375 99.585 192.327C99.5968 192.47 99.6086 192.615 99.622 192.762C99.7315 175.881 104.639 168.555 109.827 150.682C109.374 142.833 109.19 135.467 109.626 130.231Z" fill="#2E5B9A"/>
        <path d="M109.051 135.647C102.134 159.088 95.7926 181.183 91.5653 195.785C87.3379 210.387 88.6095 225.398 88.6095 225.398L81.5005 225.966C81.5005 225.966 73.5039 201.897 78.8849 188.868C84.266 175.839 81.706 167.984 82.7266 155.82C83.8735 142.091 85.8188 132.058 85.8188 132.058L109.051 135.647Z" fill="#3E6BAB"/>
        <path d="M109.36 108.675C107.021 103.481 104.535 99.501 102.655 96.5486C101.636 96.4064 100.609 96.3249 99.58 96.3044C97.5977 96.2656 94.1451 93.7225 92.087 92.0518C91.9699 92.1884 91.8338 92.3075 91.6828 92.4054C88.8651 94.1351 83.4841 100.547 84.2538 114.374C85.0235 128.201 82.1182 132.934 83.1422 138.273C84.1662 143.612 107.31 141.603 109.36 139.516C111.41 137.429 113.715 118.345 109.36 108.675Z" fill="#F37168"/>
        <path d="M91.341 89.0942L89.2627 94.583L102.445 99.9421L103.961 98.6352C103.961 98.6352 101.926 95.6727 102.445 93.879C102.964 92.0853 103.555 91.5733 102.445 91.1455C101.335 90.7177 97.3923 90.0356 94.9199 89.0975C92.4475 88.1594 91.7705 87.9674 91.341 89.0942Z" fill="#F37168"/>
        <path d="M111.715 119.875C111.452 115.755 110.742 111.742 109.357 108.675C108.852 107.544 108.333 106.475 107.818 105.458L106.156 104.737C106.156 104.737 96.9312 97.3736 90.9118 98.7462C84.8925 100.119 84.6348 122.549 88.0925 125.006C91.5502 127.464 101.928 121.224 105.13 120.681C107.213 120.329 110.009 120.036 111.715 119.875Z" fill="#D54A41"/>
        <path d="M135.093 110.652C131.329 110.652 127.479 110.332 124.286 109.352C114.686 106.406 96.6951 99.0428 93.1583 99.5245C90.3861 99.9018 87.1373 102.948 87.5213 112.427C87.9053 121.906 92.7743 119.984 98.8543 118.43C104.934 116.875 113.138 117.827 124.286 118.43C128.063 118.633 132.201 118.024 136.021 117.129C135.814 114.964 135.497 112.811 135.093 110.652Z" fill="#F37168"/>
        <path d="M148.929 111.354C148.277 111.001 142.735 111.29 137.435 111.154C137.771 113.006 138.622 116.068 138.821 117.936C144.501 116.281 149.035 116.119 149.035 116.119C149.035 116.119 150.108 111.999 148.929 111.354Z" fill="#F09959"/>
        <path d="M132.209 110.241C135.606 110.295 141.24 109.871 142.015 110.386C142.789 110.901 144.16 116.934 141.445 117.705C131.52 120.523 120.376 118.497 107.054 117.589C93.732 116.681 122.143 108.675 122.143 108.675C122.143 108.675 129.383 110.196 132.209 110.241Z" fill="#F37168"/>
        <path d="M94.4429 84.9189C96.7065 83.8006 95.5814 81.6279 95.7785 80.188C95.9755 78.748 95.3473 77.5926 95.8879 77.6903C96.4286 77.788 96.3073 83.2212 96.9877 83.1858C97.6681 83.1505 97.4172 79.0848 98.1363 78.9753C98.8555 78.8659 99.1384 77.8503 98.5742 76.0701C98.01 74.2899 98.4597 72.7101 99.9856 74.1215C101.511 75.5328 104.897 78.8069 106.872 78.3539C108.848 77.9008 108.735 75.8713 108.565 75.6457C108.395 75.42 103.315 69.7173 103.315 69.7173L93.2673 75.4756L92.9844 80.7252L94.4429 84.9189Z" fill="#58556E"/>
        <path d="M96.2466 78.7549C96.3831 80.1208 96.4285 82.1906 96.5464 82.4871C95.6521 82.8525 94.5069 82.1182 93.9881 80.8483C93.4694 79.5785 93.5182 77.9111 94.4243 77.5759C94.9885 77.3654 96.09 77.1667 96.2466 78.7549Z" fill="#F09959"/>
        <path d="M136.021 75.6896C134.596 80.301 126.654 80.365 126.27 81.6466C125.886 82.9283 126.147 86.9317 124.988 90.1047C123.135 95.1691 121.938 97.8133 119.353 98.5813C116.767 99.3493 115.678 95.0663 115.678 95.0663C115.678 95.0663 120.313 88.9527 120.562 88.8247C120.811 88.6967 123.257 73.069 123.257 73.069C123.257 73.069 129.463 71.9305 129.783 71.7621C130.103 71.5937 134.588 73.581 134.588 73.581L136.021 75.6896Z" fill="#58556E"/>
        <path d="M143.034 111.597C144.023 111.597 149.082 108.764 150.042 108.674C151.002 108.585 154.778 109.614 154.778 109.614C154.778 109.614 147.492 115.266 147.368 115.199C147.243 115.132 143.034 111.597 143.034 111.597Z" fill="#F09959"/>
        <path d="M164.26 116.464L158.752 115.929C158.752 115.929 155.803 118.539 153.117 119.147C150.431 119.755 148.248 116.884 148.248 116.884L152.421 111.999L159.778 111.157L165.349 111.728L164.26 116.464Z" fill="#E38540"/>
        <path d="M145.939 115.705C145.939 115.705 149.338 118.441 152.22 118.834C155.102 119.226 156.703 117.823 157.729 116.875C158.755 115.927 155.551 114.955 154.398 113.827C153.244 112.698 154.078 110.827 154.078 110.827H149.052L145.939 115.705Z" fill="#F09959"/>
        <path d="M164.26 111.157L158.689 110.546C158.689 110.546 156.383 108.509 155.231 108.678C154.079 108.846 151.127 111.157 151.127 111.157C151.127 111.157 148.601 113.515 149.481 113.778C150.362 114.04 152.926 113.288 153.246 112.7C153.566 112.112 152.604 112.904 155.487 112.7C158.371 112.496 158.687 111.987 158.687 111.987L164.259 112.432L164.26 111.157Z" fill="#E38540"/>
        <path d="M147.584 117.136C148.314 116.016 149.328 115.349 151.121 116.343C152.915 117.336 153.444 118.734 153.112 119.147C152.78 119.559 149.392 118.461 148.123 118.077C147.143 117.781 147.584 117.136 147.584 117.136Z" fill="#E38540"/>
        <path d="M216.543 83.3071C217.51 79.6625 220.159 70.871 215.945 68.9443C211.731 67.0176 209.621 64.1864 205.407 65.6315C201.193 67.0765 202.039 70.3893 200.523 72.1998C199.007 74.0103 201.545 79.9084 203.955 82.0153C206.365 84.1223 216.543 83.3071 216.543 83.3071Z" fill="#58556E"/>
        <path d="M164.208 110.697L160.659 110.542L159.137 117.424L165.1 118.547L164.208 110.697Z" fill="#F2E5DE"/>
        <path d="M220.592 97.3047C226.165 105.135 222.769 111.115 215.82 116.196C208.871 121.278 192.513 122.857 185.599 123.164C178.685 123.47 161.389 118.162 161.389 118.162L162.456 110.542C162.456 110.542 178.832 112.107 185.173 111.019C191.514 109.931 213.995 97.3047 213.995 97.3047H220.592Z" fill="#58556E"/>
        <path d="M207.599 100.794C205.614 101.855 203.321 103.061 200.958 104.266C198.661 110.239 198.016 116.367 186.877 120.434C184.499 121.304 182.058 121.989 179.574 122.484C181.902 122.957 184.019 123.236 185.595 123.167C190.609 122.945 201.88 123.587 209.635 121.178C209.401 115.213 207.796 105.785 207.599 100.794Z" fill="#3A384D"/>
        <path d="M214.119 75.853L218.346 89.5843L209.636 100.301L212.197 91.0967L209.636 81.682L214.119 75.853Z" fill="#F09959"/>
        <path d="M214.119 75.853L209.636 81.6837L212.182 91.0462C213.908 88.0427 215.137 84.7798 215.82 81.3839L214.119 75.853Z" fill="#E38540"/>
        <path d="M214.264 81.3974C212.807 85.9313 208.891 88.727 205.518 87.6424C202.145 86.5578 200.588 82.0054 202.049 77.4732C203.509 72.941 207.419 70.1436 210.793 71.2265C214.166 72.3095 215.721 76.8635 214.264 81.3974Z" fill="#F09959"/>
        <path d="M210.105 95.1572C210.105 95.1572 207.528 96.6932 207.535 97.889C207.542 99.0848 207.535 99.7686 207.535 99.7686C205.995 102.228 204.684 104.823 203.619 107.523C201.912 111.891 202.001 114.111 202.001 114.111L212.83 97.633L210.105 95.1572Z" fill="#F37168"/>
        <path d="M225.345 225.08C225.261 228.495 221.494 230.909 219.705 231.816C214.1 234.663 213.137 236.441 219.279 236.35C223.929 236.281 227.136 234.464 232.173 234.122C235.373 233.907 233.067 230.356 233.237 228.307C233.408 226.257 231.956 223.374 231.956 223.374L225.345 225.08Z" fill="#3A384D"/>
        <path d="M198.446 223.372C198.446 223.372 197.314 224.93 194.582 227.288C191.851 229.646 182.217 229.723 187.34 232.143C190.456 233.612 196.192 232.548 199.621 233.041C203.05 233.535 206.038 233.058 206.296 232.143C206.554 231.229 205.594 224.984 205.594 224.984L198.446 223.372Z" fill="#3A384D"/>
        <path d="M203.474 132.651C204.822 148.819 200.274 185.333 200.239 193.594C200.204 201.855 195.535 225.885 195.535 225.885C195.535 225.885 204.549 229.543 206.663 229.723C208.776 229.903 213.255 208.763 214.157 197.813C215.06 186.862 220.136 164.359 220.136 164.359L218.179 131.012L203.474 132.651Z" fill="#58556E"/>
        <path d="M212.95 207.175C213.51 203.753 213.942 200.48 214.161 197.813C215.066 186.865 220.14 164.359 220.14 164.359L219.487 153.244L203.283 153.004C202.946 158.958 202.456 165.193 201.968 170.988C208.193 184.554 211.441 198.848 212.95 207.175Z" fill="#3A384D"/>
        <path d="M204.051 138.067C210.316 172.016 214.931 185.514 219.158 200.118C223.385 214.722 222.422 229.725 222.422 229.725L234.142 231.22C234.142 231.22 238.723 204.645 234.216 191.291C231.451 183.098 233.282 171.999 232.259 159.827C231.107 146.096 230.107 132.06 230.107 132.06L204.051 138.067Z" fill="#58556E"/>
        <path d="M228.416 149.919L208.167 158.667C208.258 159.086 208.076 161.149 208.167 161.56C218.088 162.387 224.366 161.447 232.492 163.413C232.305 161.031 231.926 155.418 231.768 153.004L228.416 149.919Z" fill="#3A384D"/>
        <path d="M219.823 90.8354C228.276 98.832 231.352 107.283 231.072 111.932C230.496 121.335 232.286 157.494 232.286 157.494C232.286 157.494 227.32 158.626 218.996 160.147C210.673 161.668 202.646 159.443 202.646 159.443C202.646 159.443 201.238 133.609 201.299 117.385C201.338 107.496 219.823 90.8354 219.823 90.8354Z" fill="#58556E"/>
        <path d="M228.101 158.382C228.32 154.106 229.85 124.006 229.617 123.531C229.361 123.026 219.626 100.301 219.626 100.301C214.417 107.39 214.087 122.165 214.166 130.111C214.239 137.267 216.393 156.691 216.819 160.469C217.54 160.39 218.267 160.285 218.997 160.152C222.66 159.477 225.769 158.86 228.101 158.382Z" fill="#3A384D"/>
        <path d="M219.158 88.663L217.535 85.5034L209.636 91.9084L209.166 100.681L219.158 88.663Z" fill="#F2E5DE"/>
        <path d="M217.79 95.7499C217.79 95.7499 221.012 94.2729 223.98 95.3003C222.762 93.808 221.644 92.326 219.823 90.603C219.823 90.603 201.337 107.263 201.297 117.154C201.287 119.571 201.346 122.022 201.454 124.44C201.514 119.485 200.799 115.905 205.664 109.436C209.976 103.709 219.158 98.9937 219.158 98.9937L217.79 95.7499Z" fill="#3A384D"/>
        <path d="M219.242 87.8765L221.566 92.3177L215.82 96.4339L217.364 98.9955C217.364 98.9955 210.437 103.401 207.535 105.657C202.675 109.436 200.967 118.381 200.967 118.381C200.967 118.381 201.651 109.436 207.535 102.019C212.918 95.2347 219.242 87.8765 219.242 87.8765Z" fill="#58556E"/>
        <path d="M211.291 157.954L235.933 160.942L234.262 177.253L210.826 174.852L211.291 157.954Z" fill="#BDCCD4"/>
        <path d="M225.393 147.401L222.916 156.484L219.158 159.02L222.202 159.51C222.202 159.51 221.651 164.912 220.618 167.365C219.586 169.819 220.696 170.638 224.879 167.775C229.063 164.912 230.23 163.52 229.944 160.167C229.657 156.814 228.895 156.405 229.321 153.621C229.747 150.837 225.307 146.83 225.307 146.83L225.393 147.401Z" fill="#F09959"/>
        <path d="M222.748 151.98L221.895 156.644L229.994 157.954L231.334 151.98H222.748Z" fill="#F2E5DE"/>
        <path d="M224.978 97.3047C228.04 98.5594 231.914 109.69 237.6 129.515C238.972 134.307 231.334 155.989 231.334 155.989C231.334 155.989 221.578 155.366 221.457 153.799C221.388 152.902 225.748 135.694 225.162 134.037C224.576 132.38 221.229 127.326 218.346 116.041C215.463 104.757 219.417 95.0192 224.978 97.3047Z" fill="#58556E"/>
        <path d="M202.289 70.63C199.258 78.2173 205.834 77.4342 208.598 75.0864C211.362 72.7387 211.719 74.7664 211.663 77.5555C211.611 80.171 212.655 78.2578 212.415 81.2085C212.174 84.1592 211.983 84.299 212.954 83.275C213.924 82.251 214.223 78.5188 214.223 78.5188C214.223 78.5188 213.998 83.3508 215.379 83.6809C216.76 84.011 216.543 83.307 216.543 83.307L216.854 75.206L210.766 68.4019C210.766 68.4019 202.954 68.4625 202.946 68.7033C202.938 68.9442 202.289 70.63 202.289 70.63Z" fill="#58556E"/>
        <path d="M214.23 78.519C215.168 76.471 217.233 77.4344 216.682 79.8428C216.54 80.517 216.193 81.131 215.689 81.6009C215.185 82.0708 214.549 82.3738 213.866 82.4685L214.23 78.519Z" fill="#F09959"/>
        <path d="M49.3474 6.26008C61.7515 6.26008 78.0478 1.59317 83.0819 0.0554917C83.8398 -0.168507 84.6246 0.336753 84.6246 1.07948V35.5803C84.6246 62.2412 49.883 83.8528 49.883 83.8528C49.883 83.8528 15.1396 62.2412 15.1396 35.5803V2.67947C15.1396 1.97379 15.8689 1.45675 16.6133 1.63527C21.4049 2.78389 36.9433 6.26008 49.3474 6.26008Z" fill="#93B1C2"/>
        <path opacity="0.7" d="M49.8829 11.9359C59.1881 11.9359 70.7569 8.88411 76.5691 6.4757C78.3021 5.75824 80.2659 6.92033 80.2659 8.66516V36.35C80.2659 59.6644 49.8829 78.5645 49.8829 78.5645C49.8829 78.5645 19.5 59.6644 19.5 36.35V9.86768C19.5 8.19359 21.3223 7.03486 23.0368 7.61928C28.79 9.58305 40.4902 11.9359 49.8829 11.9359Z" fill="#9EC8FF"/>
        <path d="M50.2023 19.4458V71.1979C50.2023 71.1979 26.0391 55.801 26.0391 37.5038V16.5322C26.0391 15.3094 27.3729 14.4673 28.6193 14.9002C33.1329 16.4682 42.6941 19.4458 50.2023 19.4458Z" fill="#D6E7F0"/>
        <path d="M50.2021 19.4457V71.1977C50.2021 71.1977 75.2293 55.8008 75.2293 37.5036V16.4832C75.2293 15.2739 73.9207 14.4301 72.6795 14.8411C67.9974 16.3922 57.808 19.4457 50.2021 19.4457Z" fill="#D6E7F0"/>
        <g style="mix-blend-mode:overlay">
            <path style="mix-blend-mode:overlay" d="M24.7041 35.2436C27.9041 45.6974 29.7264 62.2025 30.5769 71.9591C21.6187 63.6072 12.7244 53.7529 12.2747 48.6043C11.7139 42.1639 10.6107 23.594 10.8061 10.6846C14.5097 15.0854 21.3206 24.2104 24.7041 35.2436Z" fill="url(#paint0_linear)"/>
            <path style="mix-blend-mode:overlay" d="M41.4773 56.1327C38.8482 43.9408 31.2946 13.5124 11.0674 4.0741C11.3638 0.0556016 11.9179 -2.53975 12.8459 -2.59533C16.5511 -2.81933 20.9301 -0.68713 20.9301 -0.68713C40.6908 -0.798287 50.3463 29.1804 51.2456 34.3442C52.145 39.508 51.1328 85.1194 49.2246 86.3422C48.8069 86.6099 46.8549 85.4495 44.0491 83.3662C43.9783 77.8807 43.5707 65.8522 41.4773 56.1327Z" fill="url(#paint1_linear)"/>
        </g>
    </g>
    <defs>
        <linearGradient id="paint0_linear" x1="-17.3874" y1="-16.3906" x2="62.186" y2="110.675" gradientUnits="userSpaceOnUse">
            <stop stop-color="white"/>
            <stop offset="1"/>
        </linearGradient>
        <linearGradient id="paint1_linear" x1="-46.5872" y1="-41.9345" x2="48.7569" y2="172.612" gradientUnits="userSpaceOnUse">
            <stop stop-color="white"/>
            <stop offset="1"/>
        </linearGradient>
        <clipPath id="clip0">
            <rect width="289.236" height="240" fill="white"/>
        </clipPath>
    </defs>
</svg>
