<svg width="197" height="44" viewBox="0 0 197 44" fill="none" xmlns="http://www.w3.org/2000/svg">
    <path fill-rule="evenodd" clip-rule="evenodd" d="M51.4969 16.061H45.5036C42.0291 16.061 38.7269 17.5328 36.4574 20.0922L26.9879 30.7733V42.9735C30.0431 42.5559 31.643 40.5622 31.643 40.5622L52.1073 17.4061C52.5917 16.89 52.2151 16.061 51.4969 16.061Z" fill="#E10600"/>
    <path fill-rule="evenodd" clip-rule="evenodd" d="M0.827933 16.061H6.82122C10.2957 16.061 13.5979 17.5328 15.8674 20.0922L25.3369 30.7733V42.9735C22.2817 42.5559 20.6824 40.5622 20.6824 40.5622L0.217473 17.4061C-0.266277 16.89 0.10971 16.061 0.827933 16.061Z" fill="#E10600"/>
    <path fill-rule="evenodd" clip-rule="evenodd" d="M38.263 1.07714V12.9726C38.263 14.661 37.6395 16.2923 36.5062 17.5706L26.9881 28.307V11.6609L36.8324 0.559851C37.3251 0.00338691 38.263 0.34268 38.263 1.07714Z" fill="#E10600"/>
    <path fill-rule="evenodd" clip-rule="evenodd" d="M14.0619 1.07714V12.9726C14.0619 14.661 14.6853 16.2923 15.8186 17.5706L25.3367 28.307V11.6609L15.493 0.559851C14.9998 0.00338691 14.0619 0.34268 14.0619 1.07714Z" fill="#E10600"/>
    <path fill-rule="evenodd" clip-rule="evenodd" d="M193.347 17.8089V18.495H193.699C194.051 18.495 194.228 18.3775 194.228 18.1413C194.228 17.9207 194.051 17.8089 193.699 17.8089H193.347ZM192.685 20.1373V17.2398H193.743C194.081 17.2398 194.344 17.2934 194.527 17.4011C194.769 17.5728 194.89 17.8089 194.89 18.1091C194.89 18.5463 194.685 18.8355 194.273 18.9795C194.375 19.1298 194.618 19.5152 195.001 20.1373H194.228L193.578 19.0647H193.347V20.1373H192.685ZM195.762 18.6673C195.762 18.1091 195.558 17.6292 195.15 17.2289C194.742 16.8285 194.258 16.628 193.699 16.628C193.125 16.628 192.638 16.8273 192.237 17.2231C191.836 17.6206 191.636 18.1021 191.636 18.6673C191.636 19.2324 191.834 19.7145 192.232 20.1114C192.628 20.5089 193.114 20.707 193.688 20.707C194.254 20.707 194.742 20.5089 195.15 20.1114C195.558 19.7145 195.762 19.2324 195.762 18.6673ZM195.514 16.8913C196.018 17.3815 196.27 17.9737 196.27 18.6673C196.27 19.3614 196.018 19.9536 195.514 20.4438C195.01 20.934 194.401 21.1788 193.688 21.1788C192.982 21.1788 192.377 20.934 191.873 20.4438C191.369 19.9536 191.117 19.3614 191.117 18.6673C191.117 17.9737 191.367 17.3815 191.867 16.8913C192.368 16.4005 192.978 16.1562 193.699 16.1562C194.405 16.1562 195.01 16.4005 195.514 16.8913Z" fill="#00B74F"/>
    <path fill-rule="evenodd" clip-rule="evenodd" d="M191.655 23.749H188.547C186.746 23.749 185.033 24.5123 183.857 25.8395L178.946 31.3782V37.7044C180.53 37.4878 181.36 36.4544 181.36 36.4544L191.972 24.4466C192.222 24.1793 192.028 23.749 191.655 23.749Z" fill="#E10600"/>
    <path fill-rule="evenodd" clip-rule="evenodd" d="M184.227 33.6899L182.788 35.2603C181.921 36.2061 181.899 37.629 182.734 38.6013C184.221 40.3324 186.445 43.0306 186.445 43.0306H192.101L184.227 33.6899Z" fill="#00B74F"/>
    <path fill-rule="evenodd" clip-rule="evenodd" d="M68.3297 43.0305L59.0265 16.0708H64.9647L71.7343 36.7913L78.4641 16.0708H84.442L75.0992 43.0305H68.3297Z" fill="#00B74F"/>
    <path fill-rule="evenodd" clip-rule="evenodd" d="M97.2497 29.2042C99.5856 29.2042 101.288 27.4328 101.288 25.1217C101.288 22.7726 99.5856 21.0392 97.2497 21.0392H92.3809V29.2042H97.2497ZM97.2497 16.0708C99.9024 16.0708 102.159 16.9568 103.98 18.6901C105.801 20.4229 106.711 22.5796 106.711 25.1217C106.711 27.6632 105.801 29.8205 103.98 31.5533C102.159 33.2866 99.9024 34.1726 97.2497 34.1726H92.3809V43.0305H86.9181V16.0708H97.2497Z" fill="#00B74F"/>
    <path fill-rule="evenodd" clip-rule="evenodd" d="M121.029 38.0621C122.89 38.0621 124.236 36.7141 124.236 34.8656C124.236 33.0556 122.89 31.7077 121.029 31.7077H114.735V38.0621H121.029ZM114.735 21.0392V26.9702H120.197C121.9 26.9702 123.166 25.6995 123.166 24.0047C123.166 22.31 121.939 21.0392 120.197 21.0392H114.735ZM129.659 35.2124C129.659 37.4843 128.827 39.3714 127.165 40.8346C125.503 42.2989 123.443 43.0305 121.029 43.0305H109.272V16.0708H120.197C122.572 16.0708 124.552 16.8024 126.175 18.2275C127.798 19.6527 128.63 21.4632 128.63 23.6585C128.63 25.8919 127.759 27.7024 126.017 29.0498C128.431 30.3977 129.659 32.4779 129.659 35.2124Z" fill="#00B74F"/>
    <path fill-rule="evenodd" clip-rule="evenodd" d="M170.036 25.3525C171.461 26.7782 172.173 28.7034 172.173 31.2069V43.0303H167.067V31.8233C167.067 29.2431 165.523 27.856 163.148 27.856C160.495 27.856 158.794 29.4356 158.794 32.6321V43.0303H153.687V23.7741H158.794V25.9303C160.02 24.1203 162 23.2344 164.692 23.2344C166.869 23.2344 168.65 23.9279 170.036 25.3525Z" fill="#00B74F"/>
    <path fill-rule="evenodd" clip-rule="evenodd" d="M178.957 32.2469V43.0305H173.85V16.0708H178.957V32.2469Z" fill="#00B74F"/>
    <path fill-rule="evenodd" clip-rule="evenodd" d="M141.359 38.9611C138.19 38.9611 135.622 36.4628 135.622 33.3803C135.622 30.2991 138.19 27.8001 141.359 27.8001C144.526 27.8001 147.095 30.2991 147.095 33.3803C147.095 36.4628 144.526 38.9611 141.359 38.9611ZM146.904 23.7741V26.0461C145.36 24.1589 143.222 23.2344 140.451 23.2344C137.799 23.2344 135.542 24.2361 133.642 26.2005C131.782 28.1648 130.832 30.5519 130.832 33.4022C130.832 36.2525 131.782 38.6789 133.642 40.6426C135.542 42.6069 137.799 43.5701 140.451 43.5701C143.222 43.5701 145.36 42.6455 146.904 40.7584V43.0303H152.011V23.7741H146.904Z" fill="#00B74F"/>
</svg>
