<svg width="56" height="56" viewBox="0 0 56 56" fill="none" xmlns="http://www.w3.org/2000/svg">
    <path d="M35.556 46.9329C35.556 51.1063 32.1731 54.4892 28.0002 54.4892C23.8273 54.4892 20.4443 51.1063 20.4443 46.9329C20.4443 42.76 23.8273 39.3771 28.0002 39.3771C32.1731 39.3771 35.556 42.76 35.556 46.9329Z" fill="#FFDE55"/>
    <path d="M28.0002 39.3771C23.8273 39.3771 20.4443 42.76 20.4443 46.9329C20.4443 49.8194 22.0653 52.3248 24.4446 53.5971C27.3743 50.3159 32.3102 49.8925 34.9412 49.9236C35.3369 49.0063 35.5565 47.9955 35.5565 46.9329C35.556 42.76 32.1731 39.3771 28.0002 39.3771Z" fill="#FFCD00"/>
    <path d="M44.7012 22.676C44.7012 22.676 44.8704 1.58588 28.0001 1.58588C11.1299 1.58588 11.2991 22.676 11.2991 22.676C11.2991 22.676 11.429 35.5643 4.78955 43.506H51.2107C44.5713 35.5643 44.7012 22.676 44.7012 22.676Z" fill="#FFDE55"/>
    <path d="M20.0034 43.506C22.7249 35.9796 23.5576 28.3148 23.7853 23.4942C23.9148 20.7615 24.7001 18.1053 26.0399 15.72C28.8982 10.6311 26.8607 4.62488 25.5482 1.74524C11.147 3.68408 11.2991 22.676 11.2991 22.676C11.2991 22.676 11.429 35.5643 4.78955 43.506H20.0034Z" fill="#FFCD00"/>
    <path d="M50.7222 48.292H5.27777C2.82623 48.292 0.820312 46.2861 0.820312 43.8345C0.820312 41.383 2.82623 39.3771 5.27777 39.3771H50.7222C53.1738 39.3771 55.1797 41.383 55.1797 43.8345C55.1797 46.2861 53.1738 48.292 50.7222 48.292Z" fill="#FFEB99"/>
    <path d="M13.7684 43.8345C13.7684 41.383 15.7744 39.3771 18.2259 39.3771H5.27777C2.82623 39.3771 0.820312 41.383 0.820312 43.8345C0.820312 46.2861 2.82623 48.292 5.27777 48.292H18.2259C15.7744 48.292 13.7684 46.2861 13.7684 43.8345Z" fill="#FFDE55"/>
    <path d="M20.2258 9.91846C20.2258 13.4847 17.3347 16.3759 13.7684 16.3759C10.2022 16.3759 7.31104 13.4847 7.31104 9.91846C7.31104 6.35223 10.2022 3.46106 13.7684 3.46106C17.3347 3.46106 20.2258 6.35223 20.2258 9.91846Z" fill="#FF929F"/>
    <path d="M50.7222 38.5568H49.0175C45.4838 31.3098 45.5205 22.7713 45.5214 22.6829C45.5222 22.5692 45.535 19.8618 44.7839 16.3549C43.5176 10.4431 41.0865 7.01959 39.2703 5.18842C36.3591 2.25366 32.5668 0.765564 28 0.765564C25.3353 0.765564 22.9098 1.27869 20.7911 2.29041C20.3822 2.48566 20.2092 2.97528 20.4044 3.38416C20.5997 3.79303 21.0893 3.96606 21.4982 3.77081C23.3943 2.86548 25.5818 2.40619 28 2.40619C32.111 2.40619 35.5089 3.72937 38.1005 6.33856C43.8867 12.1653 43.8816 22.5654 43.8807 22.6675C43.8773 23.0276 43.8376 31.1445 47.2043 38.5568H43.471C43.0177 38.5568 42.6507 38.9242 42.6507 39.3771C42.6507 39.83 43.0177 40.1974 43.471 40.1974H50.7222C52.7277 40.1974 54.3594 41.829 54.3594 43.8345C54.3594 45.84 52.7277 47.4717 50.7222 47.4717H5.27777C3.27228 47.4717 1.64062 45.84 1.64062 43.8345C1.64062 41.829 3.27228 40.1974 5.27777 40.1974H39.8373C40.2902 40.1974 40.6576 39.83 40.6576 39.3771C40.6576 38.9242 40.2902 38.5568 39.8373 38.5568H8.79572C12.1624 31.1449 12.1227 23.0276 12.1193 22.6696C12.1188 22.6436 12.1082 20.2484 12.7328 17.1214C17.535 17.6187 21.0461 13.9316 21.0461 9.91846C21.0461 5.90576 17.7811 2.64075 13.7684 2.64075C9.75531 2.64075 6.49072 5.90533 6.49072 9.91846C6.49072 13.0062 8.42401 15.6487 11.1434 16.7044C10.4667 20.0352 10.4774 22.5679 10.4786 22.6846C10.4795 22.7713 10.5222 31.2987 6.98206 38.5568H5.27777C2.36737 38.5568 0 40.9241 0 43.8345C0 46.7449 2.36737 49.1123 5.27777 49.1123H19.9118C20.8855 52.7289 24.2159 55.3095 28 55.3095C31.8234 55.3095 35.1183 52.7426 36.0895 49.1123H50.7222C53.6322 49.1123 56 46.7449 56 43.8345C56 40.9241 53.6322 38.5568 50.7222 38.5568ZM8.13135 9.91846C8.13135 6.81024 10.6602 4.28137 13.7684 4.28137C16.8766 4.28137 19.4055 6.81024 19.4055 9.91846C19.4055 13.0267 16.8766 15.5555 13.7684 15.5555C10.6602 15.5555 8.13135 13.0267 8.13135 9.91846ZM28 53.6689C25.1075 53.6689 22.5449 51.7946 21.6259 49.1123H34.3749C33.4606 51.8035 30.9228 53.6689 28 53.6689Z" fill="black"/>
</svg>
