<svg xmlns="http://www.w3.org/2000/svg" viewBox="0 0 144.09 120.83"><defs><style>.cls-1{fill:#e10600;}</style></defs><g id="Layer_2" data-name="Layer 2"><g id="Layer_1-2" data-name="Layer 1"><path class="cls-1" d="M141.81,44.66H125.3a32.89,32.89,0,0,0-24.91,11.41L74.32,86.3v34.53A20.78,20.78,0,0,0,87.13,114l56.36-65.54a2.28,2.28,0,0,0-1.68-3.81"/><path class="cls-1" d="M2.28,44.66h16.5A32.86,32.86,0,0,1,43.69,56.07L69.77,86.3v34.53A20.83,20.83,0,0,1,57,114L.6,48.47a2.28,2.28,0,0,1,1.68-3.81"/><path class="cls-1" d="M105.37,2.25V35.92a19.94,19.94,0,0,1-4.84,13L74.32,79.32V32.2L101.43.78a2.24,2.24,0,0,1,3.94,1.47"/><path class="cls-1" d="M38.72,2.25V35.92a19.94,19.94,0,0,0,4.84,13L69.77,79.32V32.2L42.66.78a2.24,2.24,0,0,0-3.94,1.47"/></g></g></svg>