<svg width="25" height="25" viewBox="0 0 25 25" fill="none" xmlns="http://www.w3.org/2000/svg">
    <g clip-path="url(#clip0)">
        <path d="M9.86656 11.2348C12.696 11.2348 14.9898 8.94118 14.9898 6.11155C14.9898 3.28208 12.696 0.988281 9.86656 0.988281C7.03708 0.988281 4.74329 3.28208 4.74329 6.11155C4.74601 8.94012 7.03814 11.2321 9.86656 11.2348ZM9.86656 1.95766C12.1608 1.95766 14.0205 3.81761 14.0205 6.11155C14.0205 8.40581 12.1608 10.2655 9.86656 10.2655C7.57246 10.2655 5.71281 8.40581 5.71281 6.11155C5.71539 3.81852 7.57352 1.96038 9.86656 1.95766Z" fill="#082854" stroke="#082854" stroke-width="0.8"/>
        <path d="M23.1814 14.0995L19.0033 11.8748C18.8593 11.7963 18.685 11.7981 18.5428 11.8795L14.7184 13.9734C13.3176 12.9313 11.6404 12.3885 9.85702 12.3885C7.63702 12.3933 5.57705 13.2562 4.05017 14.8265C2.5039 16.4115 1.6556 18.5781 1.66061 20.9289C1.66136 21.1964 1.87791 21.4129 2.14522 21.4137L15.6296 21.3894C16.2635 22.1765 17.0785 22.7984 18.0046 23.2022L18.567 23.4494C18.6281 23.4767 18.6943 23.4899 18.761 23.4882C18.8273 23.487 18.8931 23.474 18.9548 23.4494L19.5897 23.1732C21.9226 22.1944 23.4399 19.9109 23.4383 17.3808V14.5307C23.4384 14.3507 23.3398 14.1851 23.1814 14.0995ZM2.64453 20.4394C2.74621 18.5345 3.48782 16.7945 4.74815 15.5003C6.0906 14.1189 7.90827 13.3579 9.86172 13.3579H9.87627C11.4807 13.3579 12.9834 13.862 14.229 14.8168V17.439C14.2297 18.4801 14.4895 19.5045 14.985 20.4199L2.64453 20.4394ZM22.4689 17.3808C22.4698 19.5229 21.1833 21.4556 19.2068 22.2814H19.2019L18.761 22.4703L18.3924 22.3103C16.454 21.4634 15.2005 19.5498 15.1984 17.4343V14.812L18.7802 12.849L22.4689 14.8168V17.3808Z" fill="#082854" stroke="#082854" stroke-width="0.8"/>
        <path d="M17.4522 17.124C17.2782 16.9206 16.9723 16.8968 16.7687 17.0708C16.5654 17.2447 16.5416 17.5507 16.7156 17.7541L17.8157 19.0385C17.9081 19.1459 18.0425 19.2077 18.1841 19.2082C18.2952 19.2091 18.403 19.1715 18.4894 19.1015L21.0487 17.0223C21.2561 16.8523 21.2864 16.5463 21.1164 16.3387C20.9466 16.1312 20.6406 16.1009 20.4332 16.271L18.2423 18.0547L17.4522 17.124Z" fill="#082854" stroke="#082854" stroke-width="0.8"/>
    </g>
    <defs>
        <clipPath id="clip0">
            <rect x="0.571777" y="0.251221" width="24" height="24" fill="white"/>
        </clipPath>
    </defs>
</svg>
