<svg width="22" height="25" viewBox="0 0 22 25" fill="none" xmlns="http://www.w3.org/2000/svg">
    <path d="M21.0959 4.92102C17.7938 4.05861 14.4723 2.71576 11.4905 1.03768C11.3321 0.948541 11.1355 0.948541 10.9772 1.03768C7.90931 2.76397 4.76729 4.03417 1.37144 4.92102C1.15206 4.97825 1 5.16832 1 5.38515V10.302C1 15.3652 3.45057 18.7167 5.50641 20.6367C7.71966 22.7038 10.2978 23.8469 11.2338 23.8469C12.1698 23.8469 14.7479 22.7038 16.9611 20.6367C19.0169 18.7168 21.4674 15.3653 21.4674 10.302V5.38511C21.4674 5.16832 21.3153 4.97825 21.0959 4.92102ZM20.4577 10.3019C20.4577 15.031 18.172 18.1583 16.2544 19.9492C14.078 21.9819 11.751 22.8844 11.2338 22.8844C10.7167 22.8844 8.3895 21.9819 6.213 19.9492C4.29549 18.1583 2.00973 15.031 2.00973 10.3019V5.75041C5.25713 4.87156 8.28141 3.64505 11.2339 2.00964C14.1127 3.60167 17.2879 4.88916 20.4577 5.75023V10.3019Z" fill="#082854" stroke="#082854" stroke-width="0.8"/>
    <path d="M8.67947 12.31C8.33695 11.9283 7.73455 11.8837 7.33385 12.2102C6.93345 12.5366 6.88661 13.1108 7.22913 13.4925L9.39524 15.903C9.57724 16.1046 9.84188 16.2207 10.1206 16.2215C10.3393 16.2232 10.5517 16.1527 10.7218 16.0213L15.7608 12.1192C16.1692 11.8001 16.2289 11.2259 15.8942 10.8363C15.5597 10.4469 14.9573 10.39 14.5488 10.7091L10.2351 14.0567L8.67947 12.31Z" fill="#082854" stroke="#082854" stroke-width="0.8"/>
</svg>
